<?xml version="1.0" encoding="utf-8"?>
<!DOCTYPE svg PUBLIC "-//W3C//DTD SVG 20010904//EN" "http://www.w3.org/TR/2001/REC-SVG-20010904/DTD/svg10.dtd">
<svg version="1.0" xmlns="http://www.w3.org/2000/svg" width="2087px" height="692px" viewBox="0 0 2087 692" preserveAspectRatio="xMidYMid meet">
 <g fill="#060606">
  <path d="M1002.5 688.9 c-24.3 -4.5 -38.6 -8.8 -57.3 -17.6 -27.4 -12.8 -55.8 -36.6 -74.4 -62.3 -13.1 -18.1 -20.6 -33 -27.8 -55 -5.1 -15.6 -10 -42.4 -10 -54.7 l0 -4.3 -84.8 0 -84.9 0 -1.3 8.8 c-3.4 23.4 -10.5 41.2 -23.4 58.7 -17.9 24.3 -44.5 41 -75.1 47 -7.2 1.4 -12.2 1.6 -26 1.2 -9.3 -0.2 -18.3 -0.9 -20 -1.5 -1.6 -0.5 -5.9 -1.8 -9.5 -2.8 -17.4 -4.8 -37.6 -16.9 -51.5 -30.9 -20.2 -20.4 -31.3 -44.3 -35.1 -75.7 l-0.5 -4.8 -88.5 0 -88.4 0 0 3.3 c0 5.3 -3.7 22.9 -6.6 31.3 -6.1 17.8 -14.7 31.6 -28.4 45.4 -17.2 17.4 -34.5 27.2 -59.5 33.7 -8.9 2.3 -40.6 2.6 -50 0.4 -23.5 -5.3 -42.2 -15.2 -59 -31.3 -24.6 -23.5 -37.5 -53.3 -37.5 -86.7 0 -23.2 5.7 -43.5 17.6 -62.9 30.4 -49.5 91.3 -70.3 145.7 -49.8 39.5 14.9 69.1 51.4 76.1 93.9 0.9 5.1 1.7 11.2 1.8 13.7 l0.3 4.5 88 0 88 0 0.8 -7.5 c5.7 -54.8 40.7 -95.8 93.4 -109.6 2.9 -0.7 10.1 -1.8 16 -2.4 49.5 -4.6 96.9 21.9 119.4 66.9 7.1 14.2 10.5 27.3 13.3 51.1 0.1 1.3 10.3 1.5 84.6 1.5 l84.4 0 1.3 -11 c3.4 -30.6 9.9 -52.6 22.4 -76.5 20.5 -38.9 53.1 -69.7 93 -87.6 21.9 -9.8 38.9 -14.3 65 -17 14.9 -1.6 16.9 -1.6 31.7 0 23.1 2.4 36.9 5.6 55.7 12.9 55.4 21.5 99.2 68.7 116.4 125.4 4.5 15 6.4 25.2 8.8 46.8 l0.8 7 96.5 0.3 c53.1 0.1 97.5 0 98.8 -0.3 2 -0.5 2.2 -1.1 2.2 -7.9 0 -12.3 5.1 -30.9 12.5 -45.5 18.8 -37.3 55.1 -62.2 96.6 -66.1 28.1 -2.7 55.5 4.6 80.4 21.4 7.8 5.2 24 21.4 29.2 29.1 12.7 19 18.2 33.6 21.2 56.5 l1.6 12.5 84.4 0.3 c55.3 0.1 84.8 -0.1 85.6 -0.8 0.7 -0.6 1.4 -5.1 1.8 -11.2 0.3 -5.7 1 -11.6 1.5 -13.3 0.6 -1.6 1.8 -5.9 2.8 -9.5 0.9 -3.6 3.7 -10.7 6.1 -15.9 11.4 -24.8 30.3 -44.7 54.3 -57 12.3 -6.3 21.8 -9.5 35.9 -12 13.7 -2.5 22.8 -2.6 35.9 -0.6 26.6 4.2 49.1 15.5 67.7 34 17.7 17.4 28.1 36.4 33.5 60.6 1.5 6.8 2 12.6 2 24.9 0 12.3 -0.5 18.1 -2 24.9 -5.4 24.2 -15.8 43 -33.5 60.6 -17.5 17.4 -39.3 28.7 -65 33.6 -9.7 1.9 -31.1 1.6 -41 -0.5 -39.7 -8.3 -71 -32.6 -87.5 -67.9 -5.8 -12.4 -9.6 -25.7 -10.8 -37.7 l-0.7 -7.5 -85.7 -0.3 -85.6 -0.2 -0.6 3.7 c-0.3 2.1 -0.8 6.3 -1.1 9.3 -0.4 3 -2 10.2 -3.6 16 -9.6 33.5 -33.8 61.5 -66 76.3 -5.2 2.4 -12.3 5.2 -15.9 6.1 -3.6 1 -7.8 2.3 -9.5 2.8 -1.6 0.6 -10.7 1.3 -20 1.5 -13.8 0.4 -18.8 0.2 -26 -1.2 -43 -8.4 -77.3 -37.7 -91.9 -78.2 -3.5 -9.9 -5.7 -19.3 -6.4 -28.3 l-0.7 -7.5 -98.7 -0.3 -98.6 -0.2 -0.6 9.7 c-2 29.5 -12.3 64 -25.9 86.8 -10.4 17.4 -17.4 26.6 -29.9 39.4 -24.5 25 -53.1 42.2 -86.3 51.9 -5.5 1.6 -13.1 3.5 -17 4.2 -3.8 0.6 -9.2 1.6 -11.8 2.1 -6.1 1.1 -46.6 1 -53.2 -0.2z m57.5 -11.9 c3 -0.7 8.7 -1.9 12.5 -2.7 37.9 -8.2 76 -32.1 101.6 -63.8 17.5 -21.7 30.8 -48.8 36.3 -74 3.9 -18.1 4.1 -20.3 4 -43 0 -22.9 -0.5 -27.2 -4.5 -43.5 -8.7 -34.7 -25.5 -63.8 -51.5 -89 -73.3 -70.9 -190.6 -68.9 -261.2 4.4 -15.5 16.2 -25.1 29.8 -34 48.6 -13.6 28.4 -18.8 53.1 -17.9 84.8 0.6 22.4 2.9 35.7 9.2 54.7 20.1 59.9 72.5 107.5 133 120.8 9.2 2 18 3.6 23 4.1 7.9 0.8 44.1 -0.2 49.5 -1.4z m-911.5 -72.5 c28.7 -6.7 51.5 -21.6 68.8 -45 21.6 -29 28 -67.7 17.1 -103.4 -10.7 -35.2 -41.1 -65.7 -75.7 -76 -13.8 -4.2 -17.1 -4.6 -35.7 -4.6 -19.2 0 -22.5 0.5 -38.1 5.6 -27.1 8.9 -53.3 32.1 -66.2 58.7 -15.5 31.8 -15.5 69.8 -0.2 101.7 11.5 24 32.1 44.1 56.6 55.4 7.8 3.6 24.8 8.5 32.9 9.5 7.7 0.9 33.7 -0.3 40.5 -1.9z m420.5 -0.4 c11.9 -3.1 16.9 -5 26 -9.7 30.2 -16 50.8 -41.5 59.5 -74 6.2 -22.8 3.7 -55 -5.7 -75.9 -15.6 -34.4 -43.4 -57.4 -81.3 -67.2 -11 -2.8 -40.9 -2.6 -52.8 0.5 -22.5 5.8 -40.7 16.2 -56.1 32.2 -14.7 15.2 -24.2 32 -29.4 52 -3 11.6 -4.2 37.3 -2.2 47.4 2.2 10.9 4.8 20.2 7.1 25.7 16.8 39.2 51.2 65.5 93.4 71.3 7.7 1.1 34.2 -0.4 41.5 -2.3z m1003 0 c22.3 -5.8 37.1 -13.8 53 -28.8 20.5 -19.2 32.6 -43.9 36 -73.5 2.4 -21.4 -2.8 -47.1 -13.7 -66.8 -12.4 -22.7 -35.2 -43 -58.2 -51.9 -16.6 -6.4 -22.9 -7.5 -43.6 -7.5 -19.9 -0.1 -24.2 0.5 -39 5.6 -33.1 11.3 -60.6 39.2 -71.8 72.8 -4.3 13 -5.2 19.5 -5.2 37.5 0 17.7 0.9 24 5.7 37.8 13.9 40.8 51.2 71 95.3 77.1 7.7 1.1 34.2 -0.4 41.5 -2.3z m408.2 0 c25 -5.1 44.9 -16 62.2 -34.2 15.3 -16 24.1 -32.7 29.8 -55.9 2 -8.5 1.8 -40.6 -0.4 -49.7 -5.5 -22.4 -14.4 -38.6 -30.1 -55 -22.6 -23.4 -50.8 -35.3 -83.8 -35.3 -32.9 0 -62.7 12.8 -84.8 36.6 -14.6 15.6 -22.6 30.8 -28.8 54.2 -2.5 9.7 -2.5 40.8 0 50.7 8.6 33.5 27.7 59.2 55.9 75.4 11.7 6.7 22.3 10.5 38.8 13.9 8.4 1.8 31 1.4 41.2 -0.7z"/>
  <path d="M993.5 565.1 c-6.8 -1.7 -9.5 -4.4 -11.9 -11.5 -5.1 -15.6 3.1 -42.8 21.4 -70.6 15 -22.7 39.5 -46.9 55.7 -54.9 7.4 -3.7 10 -3.9 10.5 -1 0.2 1.4 1.6 2.5 4.3 3.5 5 1.6 7.1 4.2 9 10.7 6.8 22.8 -10.5 62.9 -42.9 100 -9.1 10.3 -16.8 16.7 -25.1 20.7 -6.4 3 -15.8 4.5 -21 3.1z m16.2 -9 c20.5 -7.5 43.5 -33.3 59.4 -66.6 7.3 -15.4 9.3 -22.7 9.3 -35 0.1 -15.3 -2.3 -19.5 -11.2 -19.5 -7.7 0 -15.6 5 -19.5 12.4 -1.7 3.1 -2.3 6.4 -2.7 13.6 -0.4 7.7 -0.8 9.5 -2.1 9.8 -2.5 0.5 -4.3 -7.4 -3.5 -14.8 0.5 -4.7 0.4 -6 -0.6 -6 -1.6 0 -13.1 11.6 -21.1 21.1 -23.7 28.6 -36.6 64.1 -28.9 80 1.2 2.5 3.2 5.1 4.5 5.7 3.5 1.7 10.8 1.4 16.4 -0.7z"/>
  <path d="M154.3 541.5 c-5 -2.1 -9.3 -5.3 -18.7 -14 -4.8 -4.4 -9.2 -8.2 -9.7 -8.3 -0.6 -0.2 -4 1.6 -7.7 4.1 -13.1 8.7 -24.7 13.2 -27.7 10.7 -2.2 -1.8 -1.8 -5.1 1.1 -9.6 5.9 -9.2 20 -14.4 29.8 -11.2 l4.8 1.6 6.2 -5.2 c14.1 -12 29.7 -34.7 31 -45 0.7 -6.6 -0.5 -10.3 -3.8 -11.2 -4.8 -1.2 -6.9 -0.1 -10.8 5.8 -5.3 8 -13.3 13.1 -15.3 9.8 -1.4 -2.3 5.6 -10.6 13 -15.4 4.3 -2.8 5.3 -4.1 6.9 -8.9 3.2 -9.4 4 -6.8 1.1 3.1 -0.7 2 -0.4 2.2 2.6 2.2 5.1 0 9.7 3.2 10.4 7.3 2 10.4 -10.4 31.6 -29.1 49.7 l-9.7 9.4 8.9 8.3 c10.4 9.7 14.9 13 20.1 14.8 2 0.7 3.9 1.8 4.1 2.4 0.5 1.5 -3.6 1.3 -7.5 -0.4z m-46.8 -20 c2.2 -1.4 3.3 -2.5 2.5 -2.5 -0.8 0 -3.3 1.1 -5.5 2.5 -2.2 1.3 -3.3 2.4 -2.5 2.4 0.8 0 3.3 -1.1 5.5 -2.4z"/>
  <path d="M62 496 c-0.8 -0.5 -1.2 -1.2 -0.9 -1.5 0.8 -0.7 27.1 -2.4 28.2 -1.8 2.2 1.3 0.2 3.1 -3.9 3.7 -6.9 0.9 -21.7 0.7 -23.4 -0.4z"/>
  <path d="M534.6 537.3 c-0.3 -0.3 -0.6 -1.2 -0.6 -1.9 0 -2.6 12.1 -27.5 30.1 -62.1 3 -5.6 5.1 -10.5 4.7 -10.8 -0.4 -0.4 -3.1 -0.2 -6.2 0.5 -6.3 1.3 -9.2 0.5 -5.5 -1.6 1.3 -0.7 3.4 -1.3 4.7 -1.4 2.9 0 9.2 -3.2 11.6 -5.9 1.9 -2.1 4.6 -2.9 4.6 -1.3 0 0.4 -0.6 1.6 -1.4 2.7 -4.7 7 -27.3 52.1 -34.6 69.3 -5.2 12.2 -6.1 13.7 -7.4 12.5z"/>
  <path d="M498.5 499 c-1.4 -2.2 1.9 -3 12.7 -3 5.8 0 11.2 -0.2 12 -0.5 1.9 -0.7 4.5 1.2 3.3 2.3 -1.6 1.6 -27.1 2.6 -28 1.2z"/>
  <path d="M1542.6 534.2 c-1 -1.6 12.2 -29.2 31.5 -65.9 2.3 -4.6 4 -8.5 3.6 -8.9 -0.3 -0.3 -2.8 0 -5.5 0.6 -4.9 1.3 -8.8 0.8 -7.8 -0.9 0.4 -0.5 2.5 -1.2 4.9 -1.6 4.8 -0.8 13.3 -5.1 14.1 -7.1 0.5 -1.3 3.6 -2.1 3.6 -0.9 0 0.2 -1.4 2.8 -3.2 5.7 -3.6 6 -26.6 51.2 -29.1 57.3 -9.4 22.3 -10.5 24.3 -12.1 21.7z"/>
  <path d="M1518.6 513.4 c0.4 -2.2 1.1 -4.9 1.5 -6.2 0.5 -1.3 0.9 -3.4 0.9 -4.6 0 -2.2 -0.5 -2.4 -7 -2.8 -11.5 -0.9 -11.1 -3 0.8 -3.8 l7.6 -0.5 0.9 -3.5 c3.2 -12.2 3.9 -14 5.4 -14 1.1 0 1.4 0.6 0.9 2.3 -0.8 2.8 -2.7 11.7 -2.9 13.7 -0.2 1.2 1.2 1.6 5.8 1.8 13.3 0.5 13.8 3 0.7 3.9 l-8 0.6 -1 3.6 c-0.6 2 -1.7 5.6 -2.4 8 -1.7 5.8 -4.2 6.9 -3.2 1.5z"/>
  <path d="M1991.4 535.1 c-3.5 -1.6 -9.1 -5.7 -13 -9.3 -11.7 -10.9 -12.8 -11.8 -14.5 -11.8 -0.9 0 -4.3 1.8 -7.6 4 -8.6 5.7 -17.6 9.9 -22.7 10.6 -3.8 0.6 -4.6 0.4 -5.5 -1.5 -2.5 -4.5 4.5 -13.7 13.6 -17.8 5.6 -2.6 11.9 -3.2 19.5 -1.9 4.6 0.8 4.8 0.8 10.3 -3.9 10.4 -8.9 24.9 -28.2 28.8 -38.3 2 -4.9 2.2 -14.3 0.5 -16 -0.7 -0.7 -3.1 -1.2 -5.4 -1.2 -4.1 0 -4.5 0.3 -8.5 6.1 -4.8 6.7 -12.2 12 -14.2 10 -2.5 -2.5 3.8 -10.4 12.9 -16.4 4 -2.7 5 -4 6.2 -8.2 1.6 -5.9 3.8 -8.7 2.9 -3.9 -0.3 1.8 -0.9 4.3 -1.3 5.8 -0.6 2.3 -0.3 2.6 2.2 2.6 4 0 9.2 3.4 10 6.5 1.2 4.8 -0.3 11 -4.5 19.4 -5.7 11.4 -13.1 21 -23.9 31.3 -5.1 4.8 -9.2 9.1 -9.2 9.7 0 2.1 20.5 19.3 26.1 21.9 3.2 1.5 5.9 3.3 5.9 4 0 1.8 -1.9 1.5 -8.6 -1.7z m-48.9 -17.1 c0.4 -0.6 2.3 -1.7 4.2 -2.5 2 -0.9 3.3 -1.8 3 -2.1 -0.3 -0.3 -1.8 0.1 -3.4 1 -1.5 0.8 -3.6 1.8 -4.5 2.2 -1 0.3 -1.8 1 -1.8 1.5 0 1.2 1.7 1.1 2.5 -0.1z"/>
  <path d="M1911.8 510.9 c-0.2 -0.7 0.2 -3.5 0.9 -6.3 0.7 -2.8 1.3 -6.3 1.3 -7.8 0 -2.7 -0.1 -2.7 -6.7 -3 -4.1 -0.2 -6.8 -0.8 -7 -1.5 -0.3 -0.9 1.8 -1.3 7.4 -1.5 l7.8 -0.3 1.9 -7 c2.4 -9.2 3.3 -11.5 4.6 -11.5 1.4 0 1.2 3.2 -0.6 9.9 -2.4 8.5 -1.9 9.1 7.1 9.1 4.1 0 7.5 0.4 7.5 0.9 0 1.5 -2.9 2.1 -10.1 2.1 -7.8 0 -7.5 -0.4 -9.9 10 -1.4 5.9 -3.4 9.2 -4.2 6.9z"/>
  <path d="M342.3 353.3 c-2 -0.7 -1.9 -284.9 0.1 -285.6 0.7 -0.3 1.9 0 2.5 0.6 0.8 0.8 1.1 39.4 1.1 142.8 0 146.6 0.1 143.5 -3.7 142.2z"/>
  <path d="M1757.3 353.3 c-1 -0.4 -1.3 -29.8 -1.3 -142.8 0 -113 0.3 -142.4 1.3 -142.8 3.8 -1.3 3.7 -4.4 3.7 142.8 0 147.2 0.1 144.1 -3.7 142.8z"/>
  <path d="M1834.8 288 c-15.7 -2.8 -31.6 -11.9 -41.2 -23.4 -7.5 -9.1 -10.5 -14.6 -14.8 -27.1 -2.9 -8.3 -3.1 -29.2 -0.4 -38 7.8 -25.7 26.6 -44.1 51.6 -50.6 7.2 -1.8 10.2 -2.1 20 -1.6 11.3 0.5 13.4 1 23.5 5 19.6 7.8 36.7 27.8 42.1 49.2 2.7 10.7 2.3 25.9 -1 35.8 -4.9 14.6 -8.4 20.5 -18.1 30.2 -9.6 9.7 -17.6 14.7 -29.7 18.6 -7.1 2.3 -24.3 3.3 -32 1.9z"/>
  <path d="M804.7 157 c-7.4 -1.3 -14.8 -5.9 -17.7 -11.1 -2.1 -3.6 -2.5 -5.7 -2.5 -11.9 0 -6.3 0.5 -8.3 2.7 -12 2.9 -5 8.8 -9.7 16.3 -12.9 4.2 -1.8 5.7 -3.1 8.5 -7.9 5.7 -9.7 16 -25.2 24 -36.2 12 -16.5 25 -35.8 25 -36.9 0 -1.7 -1.1 -1.4 -9.3 2.3 -14.5 6.6 -22.9 8.7 -37.4 9.3 -15 0.6 -18.7 -1 -4.8 -2.1 4.6 -0.3 10.8 -1.1 13.7 -1.7 13.3 -2.7 30.9 -10.4 44 -19.2 9.2 -6.1 10.3 -4.6 3.7 5.1 -2.7 4 -4.9 7.5 -4.9 7.7 0 1.1 2.8 0.4 7.4 -2 12.2 -6.2 20.3 -3.5 16.6 5.5 -1.5 3.6 -17.6 19.2 -25.2 24.4 -3.2 2.2 -5.8 4.5 -5.8 5.1 0 0.7 2.2 1.4 5.4 1.8 9.2 0.9 15.7 5.8 17.7 13.1 3.6 13.3 -5.5 40.2 -18.7 55.3 -8.2 9.4 -22 18.3 -34.3 22.3 -7 2.2 -18.1 3.1 -24.4 2z m26.5 -9.6 c26.6 -9.5 45.6 -35.8 45.8 -63 0 -8.2 -1.8 -11.4 -7.7 -13.9 -5.4 -2.3 -17.4 -1.9 -26.2 0.8 l-7.4 2.2 -14.1 23.5 c-7.8 12.9 -17.2 27.9 -20.9 33.2 -3.7 5.3 -6.7 10.6 -6.7 11.8 0 1.6 1.4 2.8 6.3 5 8.7 4 20.3 4.2 30.9 0.4z m19.7 -85.5 c7.8 -4.4 27.7 -19.5 30.1 -22.9 1.1 -1.6 2 -4 2 -5.5 0 -2.7 -0.1 -2.7 -4.1 -2.1 -6.2 1 -13.6 5.2 -20.2 11.5 -6.1 5.7 -16.7 19.1 -16.7 21 0 1.9 3.2 1.2 8.9 -2z"/>
  <path d="M1063.5 151 c-0.5 -0.8 5.1 -7.6 11.5 -14 4.9 -4.9 15 -17.9 15 -19.2 0 -2.7 -5.2 0.6 -16.9 10.5 -21.2 17.9 -21.5 18 -28.2 18.5 -5.4 0.4 -6 0.2 -9 -2.7 -2.7 -2.8 -3 -3.6 -2.6 -7.4 0.2 -2.3 0.8 -5.2 1.2 -6.4 1.1 -3.3 -0.6 -2.9 -7.7 2.1 -9.3 6.5 -24.2 13.6 -29.8 14.3 -6.8 0.8 -9.5 -0.1 -11 -3.7 -0.7 -1.6 -1.6 -3 -2 -3 -0.4 0 -3.1 1.6 -6 3.5 -5.8 3.9 -12 5.9 -15.3 4.9 -3.3 -1 -6.7 -4.5 -6.7 -6.8 -0.1 -5.1 -1.6 -5.1 -7.8 -0.2 -4.1 3.3 -7.3 4.9 -10.1 5.3 -10.3 1.4 -14.9 -2.6 -13.7 -12.3 0.8 -6.6 0 -6.8 -6.9 -1.8 -13 9.3 -29.9 15.8 -36.7 14.1 -10.3 -2.6 -0.4 -19.4 17.5 -29.6 9.6 -5.4 17.9 -8.8 23.7 -9.7 5.9 -0.9 4.3 0.8 -3 3.1 -18.5 5.8 -36.7 19.8 -35.8 27.5 0.3 2.4 0.6 2.5 6.3 2.5 5.2 0 7.2 -0.6 15.5 -4.9 17.3 -8.9 27.9 -16.7 35 -26 3.3 -4.3 6 -5.9 6 -3.5 0 0.6 -2 3.4 -4.5 6.2 -7.1 8.1 -11.5 17.4 -11.5 24.1 0 5.2 0.2 5.7 2.8 6.7 4.5 1.8 9 0.3 16.3 -5.3 6.3 -4.7 7.1 -5.8 8.6 -10.8 2.4 -8.3 7.5 -18.1 22.8 -43.5 15.6 -26.1 22.3 -35.7 34.6 -50 12.2 -14.2 30.5 -31.7 32.7 -31.3 3 0.6 2.7 6.8 -0.7 14.3 -6.9 15.1 -16.6 27.1 -45.6 56 -25.2 25.2 -29.3 30.5 -36.1 46.8 -7 16.4 -6.3 23.7 2.1 23.7 5.3 0 17.2 -6.7 24.4 -13.8 9.2 -9.2 20.9 -16.3 33.4 -20.3 6.2 -2 10.8 -2.5 9.2 -1.1 -0.6 0.5 -4.6 2.1 -8.9 3.7 -11 3.9 -19.8 9 -26.6 15.5 -5.8 5.4 -7.8 9.4 -6.6 12.6 1.1 2.8 10.9 1.4 19.1 -2.6 17 -8.4 30.3 -18.3 38.8 -28.8 1.8 -2.2 3.3 -3.2 4.3 -2.8 1.1 0.4 0.2 2.1 -4.2 7.2 -7.3 8.7 -11.4 17.3 -11.4 24 0 4.8 0.2 5.2 3 6.4 6.4 2.7 8.1 1.7 33.5 -19.7 12.9 -10.9 18.5 -13.4 21.5 -9.8 1.1 1.3 1 2.2 -0.3 5.1 -2 4 -2.2 6.4 -0.6 6.4 0.6 0 3.7 -1.5 6.8 -3.4 11.6 -7 22 -11.6 26.1 -11.6 6.6 0 5.6 2.6 -7 18.2 -4 5 -5 6.9 -5 10 0 3.2 0.4 4 2.6 4.8 3.9 1.5 7.1 1.2 11.7 -1.1 6.6 -3.4 9.8 -6.1 11.8 -10.2 3 -5.7 8.3 -11.2 17 -17.3 12 -8.4 20.1 -11.9 27.4 -11.8 6.8 0.2 12.7 1.3 12.3 2.4 -0.4 1 -7.7 9.8 -10.7 12.8 -3.4 3.4 -3.9 1.1 -0.7 -3.1 1.4 -1.9 2.6 -4.6 2.6 -6 0 -2.5 -0.3 -2.7 -4.4 -2.7 -5.4 0 -10.2 1.9 -18.8 7.6 -6.9 4.6 -14.8 12.6 -17.4 17.7 -0.8 1.5 -1.4 4.3 -1.2 6 0.9 9.1 23.6 9.1 47.5 0 6.6 -2.5 9.9 -4.4 11.1 -6.2 4.6 -7 15.1 -15.9 24.8 -20.9 13.7 -7 26.6 -9.5 28.1 -5.5 1.4 3.5 -7.6 8.6 -32 18.3 -14 5.6 -17.1 8.3 -14.6 12.9 3.2 5.7 13.7 7.4 29.1 4.6 9.8 -1.7 17.1 -4.6 25.1 -9.7 5.7 -3.6 7.3 -3.1 2.7 0.9 -11.2 9.5 -23.7 14.1 -40.5 14.9 -13.2 0.7 -17.8 -0.5 -21.1 -5.4 -1.3 -1.8 -2.4 -3.8 -2.6 -4.4 -0.2 -0.6 -2.9 0.2 -6.6 2.1 -14.3 7.2 -27.8 10.5 -41.4 9.9 -7.8 -0.2 -9.8 -0.7 -12.6 -2.7 -1.8 -1.3 -3.8 -3.4 -4.3 -4.8 l-0.9 -2.5 -4.9 3.6 c-8.9 6.6 -14.5 7.9 -20.6 5 -7.5 -3.5 -7.2 -11.2 0.9 -21.5 3.1 -3.9 5.6 -7.5 5.6 -8 0 -1.8 -4.5 -0.8 -11.9 2.7 -9.1 4.4 -14.1 7.7 -24.1 15.9 -20.6 16.8 -20.9 17 -22.5 14.5z m-39.2 -111.9 c2 -2.3 3.7 -4.6 3.7 -5 0 -0.3 0.8 -1.3 1.8 -2.2 0.9 -0.8 2.6 -2.7 3.7 -4.2 1.1 -1.5 2.5 -2.7 3.2 -2.7 0.7 0 1.3 -0.8 1.3 -1.7 -0.1 -2.2 -8.5 6.6 -18.2 19.2 -6.5 8.3 -4.5 6.9 4.5 -3.4z"/>
 </g>
 <g fill="#e73535">
  <path d="M1658 288.3 c-5.3 -0.7 -15.6 -4 -21.1 -6.8 -35.3 -17.7 -49.5 -59.8 -32.2 -95.1 6.1 -12.5 19.8 -26.1 32 -31.8 8.8 -4.2 9.3 -4.4 16.4 -6 17.4 -4.2 38.1 -0.1 53.6 10.5 17.6 12.2 27.8 28.8 31.3 51.5 2.5 16.3 -3.8 36.8 -15.8 51.7 -9.6 11.8 -21.5 19.8 -36.2 24.1 -5.6 1.7 -21.8 2.8 -28 1.9z"/>
 </g>
 <g fill="#42a6b5">
  <path d="M415.8 274.9 c-8 -1 -22.5 -7 -29.6 -12.3 -5.8 -4.2 -16.4 -15.2 -18.5 -19.3 -9.1 -16.9 -10.9 -23.1 -10.9 -38.3 0 -11 0.3 -13.5 2.7 -20.4 7.6 -22.5 21.8 -37.5 44 -46.7 8.6 -3.5 28.8 -5.2 35.9 -2.9 1.7 0.5 5.7 1.7 8.9 2.6 11.8 3.5 27.6 15.1 35.9 26.4 6.2 8.5 10.6 19.9 12.8 33.3 3.1 18.4 -5.4 41.7 -20.7 57.2 -11.5 11.7 -24.3 18.2 -39.9 20.5 -7.9 1.1 -11.2 1.1 -20.6 -0.1z"/>
 </g>
 <g fill="#49c557">
  <path d="M239.6 275 c-25.1 -3.2 -50.2 -24.8 -56.9 -49 -3.3 -11.7 -3.7 -13.9 -3.7 -20.7 0 -25.8 16.2 -51.9 39.3 -63.5 8.4 -4.1 9.2 -4.5 16.5 -6.2 12.5 -3.1 29.8 -1.4 42.3 4.1 16 7.1 30.8 22 37 37.3 4.8 11.8 5.4 14.9 5.4 28.5 0 11.7 -0.3 13.8 -2.8 21 -9.3 26.3 -31.1 44.7 -57.3 48.5 -7.7 1.1 -11.2 1.1 -19.8 0z"/>
 </g>
 <g fill="#ffffff">
  <path d="M1954.3 610.3 c2 -0.2 5.4 -0.2 7.5 0 2 0.2 0.3 0.4 -3.8 0.4 -4.1 0 -5.8 -0.2 -3.7 -0.4z"/>
  <path d="M94 528.9 c0 -0.6 1 -2.8 2.2 -4.9 3.3 -5.6 10.7 -9.3 18.5 -9.1 5.3 0.2 6.3 0.4 6.3 1.7 0 1.4 -10.7 8.4 -16.5 10.8 -4.7 2 -10.5 2.8 -10.5 1.5z"/>
  <path d="M1933 522.5 c0 -2.1 4.1 -8.3 6 -9 0.8 -0.3 2.9 -1.3 4.5 -2.2 3.5 -2 13.4 -2.8 15.5 -1.4 1.3 0.9 1 1.5 -1.5 3.6 -1.6 1.3 -4.8 3.4 -7 4.5 -2.2 1.2 -4.7 2.5 -5.5 2.9 -2.2 1.3 -8.4 3.1 -10.3 3.1 -0.9 0 -1.7 -0.7 -1.7 -1.5z"/>
  <path d="M2074.2 490 c0 -1.9 0.2 -2.7 0.5 -1.7 0.2 0.9 0.2 2.5 0 3.5 -0.3 0.9 -0.5 0.1 -0.5 -1.8z"/>
  <path d="M139 464.7 c0 -1.6 7.7 -9.3 8.6 -8.4 0.7 0.7 -3.1 5.6 -6.3 8.1 -1.8 1.3 -2.3 1.4 -2.3 0.3z"/>
  <path d="M1044.3 460.5 c0 -2.2 0.2 -3 0.4 -1.7 0.2 1.2 0.2 3 0 4 -0.3 0.9 -0.5 -0.1 -0.4 -2.3z"/>
  <path d="M1977 459.7 c0 -0.9 5.2 -7.1 6.9 -8.4 3.6 -2.4 2.5 0.8 -1.5 5 -3.1 3.1 -5.4 4.6 -5.4 3.4z"/>
  <path d="M1039.2 450.1 c-0.9 -0.6 -0.8 -1.2 0.8 -2.6 2 -1.8 2.4 -1.3 1.2 1.7 -0.4 1.1 -1.2 1.4 -2 0.9z"/>
  <path d="M1024.3 297.3 c1.5 -0.2 3.9 -0.2 5.5 0 1.5 0.2 0.2 0.4 -2.8 0.4 -3 0 -4.3 -0.2 -2.7 -0.4z"/>
  <path d="M1917.3 218 c0 -2.5 0.2 -3.5 0.4 -2.2 0.2 1.2 0.2 3.2 0 4.5 -0.2 1.2 -0.4 0.2 -0.4 -2.3z"/>
  <path d="M955.1 138.2 c-0.1 -0.7 -0.7 -1.2 -1.4 -1 -1.4 0.3 -2.4 -1.5 -1 -1.9 1.5 -0.5 3.6 1.5 3 2.8 -0.4 1.1 -0.6 1.1 -0.6 0.1z"/>
  <path d="M791.5 131.7 c-1.3 -3.2 2.7 -10.7 8 -14.9 3.4 -2.7 4.2 -1.7 1.6 2 -1.2 1.7 -2.1 3.5 -2.1 4.1 0 0.6 -0.4 1.1 -0.9 1.1 -0.5 0 -1.4 1.2 -1.9 2.8 -0.6 1.5 -1.7 3.6 -2.5 4.7 -1.5 1.9 -1.6 1.9 -2.2 0.2z"/>
  <path d="M924.7 129.6 c-0.4 -1 -0.5 -2.1 -0.2 -2.4 0.9 -0.9 1.7 0.6 1.3 2.5 -0.3 1.7 -0.4 1.7 -1.1 -0.1z"/>
  <path d="M1093 125.5 c0.7 -0.8 1.6 -1.2 2.1 -0.9 1.3 0.8 0.1 2.4 -1.8 2.4 -1.3 0 -1.3 -0.3 -0.3 -1.5z"/>
  <path d="M1224.1 120.3 c2 -2.1 14.3 -9.7 15.9 -9.8 0.3 0 1 -0.3 1.5 -0.6 2.1 -1.3 12.6 -4.2 13.1 -3.6 1.1 1.1 -0.7 2.7 -5.7 5.2 -2.7 1.4 -5.2 2.6 -5.6 2.7 -0.5 0 -3.7 1.4 -7.3 3 -13.7 6.3 -15.1 6.6 -11.9 3.1z"/>
  <path d="M987 82.3 c0 -0.4 2 -3.7 4.5 -7.4 2.5 -3.7 4.5 -7 4.5 -7.3 0 -0.4 1.1 -1.9 2.5 -3.4 1.4 -1.5 2.5 -3 2.5 -3.5 0 -0.8 13.3 -18.5 20.8 -27.7 5.4 -6.6 21.1 -22 22.5 -22 1.2 0 0 8.2 -1.4 9.1 -0.6 0.3 -1.2 2.3 -1.4 4.3 -0.4 4.3 -2 6.7 -4.1 5.9 -0.8 -0.3 -1.4 -0.1 -1.4 0.5 0 0.5 -1.1 2 -2.5 3.3 -1.3 1.3 -2.5 2.9 -2.5 3.6 0 0.6 -0.4 1.3 -0.8 1.5 -0.5 0.2 -3.7 3.7 -7.2 7.8 -6.4 7.5 -34.4 36 -35.5 36 -0.3 0 -0.5 -0.3 -0.5 -0.7z"/>
  <path d="M864.7 31.6 c-0.5 -1.2 0 -1.6 2.1 -1.5 1.6 0 2.1 0.3 1.2 0.6 -0.8 0.3 -1.8 1 -2.1 1.5 -0.3 0.5 -0.9 0.3 -1.2 -0.6z"/>
  <path d="M860.1 27.1 c-0.9 -0.6 -0.7 -1 0.8 -1.4 1.2 -0.3 2.1 -0.1 2.1 0.3 0 1.4 -1.5 1.9 -2.9 1.1z"/>
 </g>
 <g fill="#595959">
  <path d="M951.6 137.2 c-0.3 -0.6 -0.1 -1.4 0.5 -1.7 1.5 -1 2.5 0.3 1.2 1.6 -0.7 0.7 -1.3 0.7 -1.7 0.1z"/>
  <path d="M1060.6 137.2 c-0.3 -0.5 0.9 -1.9 2.6 -3.2 l3.2 -2.3 -2.3 3.1 c-2.4 3.4 -2.7 3.6 -3.5 2.4z"/>
  <path d="M341.4 94.5 c0 -14.8 0.2 -21.1 0.3 -13.8 0.2 7.2 0.2 19.4 0 27 -0.1 7.6 -0.3 1.7 -0.3 -13.2z"/>
  <path d="M1760.2 75 c0 -1.9 0.2 -2.7 0.5 -1.7 0.2 0.9 0.2 2.5 0 3.5 -0.3 0.9 -0.5 0.1 -0.5 -1.8z"/>
  <path d="M1037.6 30.1 c-0.4 -0.6 -0.4 -1.1 0.1 -1 1.9 0.3 2.7 -0.2 1.6 -0.9 -1 -0.7 -1 -1.2 0 -2.6 1.2 -1.7 1.4 -1.7 2 -0.3 0.8 2.1 -2.7 6.5 -3.7 4.8z"/>
 </g>
</svg>