<?xml version="1.0" encoding="utf-8"?>
<!DOCTYPE svg PUBLIC "-//W3C//DTD SVG 20010904//EN" "http://www.w3.org/TR/2001/REC-SVG-20010904/DTD/svg10.dtd">
<svg version="1.0" xmlns="http://www.w3.org/2000/svg" width="900px" height="900px" viewBox="0 0 900 900" preserveAspectRatio="xMidYMid meet">
 <g fill="#f7f9fa">
  <path d="M0 450 l0 -450 450 0 450 0 0 450 0 450 -450 0 -450 0 0 -450z"/>
 </g>
 <g fill="#231f20">
  <path d="M445.5 874.3 c-3.7 -0.9 -8.5 -5.3 -9.3 -8.6 l-0.8 -3.2 -15.2 -1.2 c-14.3 -1 -28.4 -2.6 -35.9 -3.9 -2.5 -0.5 -3.3 -0.3 -3.3 0.9 0 2.2 -6.3 7.4 -9.9 8.2 -6.7 1.5 -14.9 -4.2 -16 -11.1 l-0.6 -3.6 -14 -3.9 c-7.7 -2.1 -19.2 -5.6 -25.5 -7.8 l-11.5 -3.9 -3.7 3.4 c-3.2 2.8 -4.6 3.4 -8.4 3.4 -2.6 0 -5.9 -0.8 -7.5 -1.7 -3.7 -2.2 -7.3 -9.4 -6.6 -13.1 0.5 -2.6 0 -3 -11.1 -8.4 -6.5 -3.1 -16.8 -8.6 -23.1 -12.2 l-11.4 -6.6 -2.4 2.1 c-1.6 1.6 -3.9 2.4 -7.5 2.6 -4.8 0.4 -5.7 0.1 -9 -2.7 -4.7 -3.9 -6.6 -9.3 -4.9 -14.1 0.9 -2.7 0.9 -3.4 -0.3 -4.1 -3 -1.7 -20.6 -15.7 -30.8 -24.5 l-10.7 -9.2 -4 1.6 c-11.3 4.4 -22.2 -6.5 -17.8 -17.8 l1.6 -4 -9.9 -11.5 c-5.5 -6.4 -13 -15.5 -16.6 -20.4 l-6.7 -8.8 -5.6 0.5 c-4.4 0.3 -6.3 0 -8.7 -1.5 -6.2 -4 -8.2 -13.3 -4.1 -19.4 l2.4 -3.4 -6.4 -10.9 c-3.5 -6.1 -9.1 -16.5 -12.5 -23.2 -5.7 -11.5 -6.3 -12.3 -9 -12.3 -4.3 0 -9.1 -2.3 -12.2 -6.1 -2.5 -2.9 -2.8 -3.9 -2.4 -8.6 0.4 -4.3 1.1 -6 3.6 -8.6 l3.1 -3.2 -4 -11.5 c-2.2 -6.3 -5.7 -17.8 -7.8 -25.5 l-3.9 -14 -3.3 -0.6 c-5 -0.8 -7.7 -2.9 -10 -7.7 -1.5 -3.1 -1.9 -5.2 -1.5 -7.8 0.8 -3.8 6 -10.4 8.3 -10.4 1.2 0 1.4 -0.8 0.9 -3.2 -1.3 -7.6 -2.9 -21.7 -3.9 -36 l-1.2 -15.2 -2.9 -0.7 c-6.2 -1.7 -10.3 -8.9 -9 -15.9 0.8 -3.8 6.3 -9.7 9.6 -10.2 2.2 -0.3 2.3 -0.8 3.5 -15.6 1 -14.3 2.6 -28.4 3.9 -35.9 0.5 -2.5 0.3 -3.3 -0.9 -3.3 -2.4 0 -7.4 -6.4 -8.1 -10.4 -1.4 -7.3 5 -15.6 12.1 -15.6 2.7 0 2.9 -0.3 5.1 -9.8 1.3 -5.4 4.8 -17 7.7 -25.8 l5.2 -15.9 -3.3 -3.8 c-2.9 -3.1 -3.4 -4.4 -3.4 -8.7 0 -4.1 0.5 -5.5 3 -8.4 3.4 -3.8 8.8 -6.1 12.3 -5.3 2 0.5 2.8 -0.7 7.9 -11.1 3.1 -6.4 8.7 -17.1 12.5 -23.7 l6.9 -11.9 -2.3 -3.5 c-4.2 -6.2 -2.2 -15.2 4.4 -19.2 2.8 -1.8 4.5 -2.1 8.7 -1.6 l5.2 0.5 6.7 -8.8 c3.7 -4.9 11.2 -14 16.7 -20.4 l9.9 -11.5 -1.6 -4 c-4.4 -11.3 6.5 -22.2 17.8 -17.8 l4 1.6 11.5 -9.9 c6.4 -5.5 15.5 -13 20.4 -16.6 l8.8 -6.7 -0.5 -5.6 c-0.3 -4.4 0 -6.3 1.5 -8.7 4 -6.2 13.3 -8.2 19.3 -4.1 l3.5 2.3 11.9 -6.9 c6.6 -3.8 17.3 -9.4 23.7 -12.5 10.4 -5.1 11.6 -5.9 11.1 -7.9 -0.8 -3.5 1.5 -8.9 5.3 -12.3 2.9 -2.5 4.3 -3 8.4 -3 4.3 0 5.6 0.5 8.7 3.4 l3.8 3.3 15.9 -5.2 c8.8 -2.9 20.4 -6.4 25.8 -7.7 9.5 -2.2 9.8 -2.4 9.8 -5.1 0 -7.1 8.3 -13.5 15.6 -12.1 4 0.7 10.4 5.7 10.4 8.1 0 1.2 0.8 1.4 3.3 0.9 7.1 -1.3 27.9 -3.5 38.9 -4.2 l11.7 -0.7 1.1 -3.3 c1.7 -5.1 7.1 -8.8 12.9 -8.8 5.9 0 10.3 2.9 12.7 8.3 l1.7 3.8 11.6 0.7 c11 0.7 31.7 2.9 38.9 4.2 2.4 0.5 3.2 0.3 3.2 -0.9 0 -2.3 6.6 -7.5 10.4 -8.3 2.6 -0.4 4.7 0 7.8 1.5 4.8 2.3 6.9 5 7.7 10 l0.6 3.3 14 3.9 c7.7 2.1 19.2 5.6 25.5 7.8 l11.5 4 3.2 -3.1 c2.6 -2.5 4.3 -3.2 8.6 -3.6 4.9 -0.4 5.7 -0.1 9 2.7 3.7 3.3 6.1 8.5 5.5 12.2 -0.3 1.9 1.6 3.2 13.7 9.4 7.8 3.9 18 9.4 22.8 12.3 l8.7 5.1 3.7 -2.4 c6.9 -4.8 15.8 -2.1 19.7 5.9 1.6 3.3 1.8 4.6 0.8 8 -0.9 3.3 -0.8 4.2 0.4 4.9 3 1.7 21.3 16.3 31 24.8 l10.2 8.8 4 -1.6 c5.5 -2.1 10.3 -1.1 14.7 3.2 4.3 4.3 5.3 9.2 3.2 14.6 l-1.6 4 9.9 11.5 c5.5 6.4 13 15.5 16.7 20.4 l6.7 8.9 4.6 -0.6 c12.2 -1.4 20.4 11 13.7 20.8 l-2.3 3.5 6.9 11.9 c3.8 6.6 9.4 17.3 12.5 23.7 5.1 10.4 5.9 11.6 7.9 11.1 3.5 -0.8 8.9 1.5 12.3 5.3 2.5 2.9 3 4.3 3 8.4 0 4.3 -0.5 5.6 -3.4 8.7 l-3.3 3.8 5.2 15.9 c2.9 8.8 6.4 20.4 7.7 25.8 2.2 9.5 2.4 9.8 5.1 9.8 7 0 13.6 8.5 12.3 15.6 -0.8 3.8 -6 10.4 -8.3 10.4 -1.2 0 -1.4 0.8 -0.9 3.3 1.3 7.1 3.5 27.9 4.2 39 0.5 9.6 1 12 2.3 12.4 7 2.2 10.5 6.6 10.5 13.4 0 5.8 -3.7 11.2 -8.8 12.9 l-3.3 1.1 -0.7 11.7 c-0.7 11 -2.9 31.8 -4.2 39 -0.5 2.4 -0.3 3.2 0.9 3.2 2.3 0 7.5 6.6 8.3 10.4 1.3 7.1 -5.3 15.6 -12.3 15.6 -2.7 0 -2.9 0.3 -5.1 9.8 -1.3 5.4 -4.8 17 -7.7 25.8 l-5.2 15.9 3.3 3.8 c2.9 3.1 3.4 4.4 3.4 8.7 0 4.1 -0.5 5.5 -3 8.4 -3.4 3.8 -8.8 6.1 -12.3 5.3 -2 -0.5 -2.8 0.7 -7.9 11.1 -3.1 6.4 -8.7 17.1 -12.5 23.7 l-6.9 11.9 2.3 3.5 c4.4 6.4 2.4 15 -4.5 19.3 -2.7 1.6 -4.4 2 -8.6 1.5 l-5.2 -0.5 -6.7 8.8 c-3.7 4.9 -11.2 14 -16.7 20.4 l-9.9 11.5 1.6 4 c2.1 5.3 1.1 10.1 -3 14.5 -4.1 4.3 -9.2 5.5 -14.8 3.3 l-4 -1.6 -11.5 9.9 c-6.4 5.5 -15.5 13 -20.4 16.7 l-8.8 6.7 0.5 5.1 c0.7 6.3 -1.2 10.4 -6 13.4 -4.6 2.8 -10.5 2.7 -14.8 -0.2 l-3.5 -2.3 -11.9 6.9 c-6.6 3.8 -17.3 9.4 -23.7 12.5 -10.4 5.1 -11.6 5.9 -11.1 7.9 0.8 3.5 -1.5 8.9 -5.3 12.3 -2.9 2.5 -4.3 3 -8.4 3 -4.3 0 -5.6 -0.5 -8.7 -3.4 l-3.8 -3.3 -15.9 5.2 c-8.8 2.9 -20.4 6.4 -25.8 7.7 -9.5 2.2 -9.8 2.4 -9.8 5.1 0 7 -8.5 13.6 -15.6 12.3 -3.8 -0.8 -10.4 -6 -10.4 -8.3 0 -1.2 -0.8 -1.4 -3.2 -0.9 -7.6 1.3 -21.7 2.9 -36 3.9 l-15.2 1.2 -0.8 3.2 c-1.5 5.7 -10.1 10.2 -16.3 8.6z m-9.4 -18 c1.5 -4 4.7 -7.1 8.6 -8.4 l3.3 -1.1 -0.2 -47.6 -0.3 -47.7 -3 -1.4 c-4.4 -2 -7.4 -5.1 -8.3 -8.5 l-0.8 -3.1 -13 -1.2 c-7.1 -0.8 -16.4 -1.9 -20.6 -2.7 -7 -1.2 -7.8 -1.1 -8.2 0.3 -0.3 0.9 -5.1 24.7 -10.7 52.9 l-10.2 51.2 4.1 3.6 c3.1 2.6 4.4 4.5 4.8 7.4 0.7 4.5 0.1 4.3 18.4 6.4 17 2 20 2.2 28.3 2.4 6.5 0.2 6.8 0.1 7.8 -2.5z m62.4 0.1 c17.8 -2.1 17.2 -1.9 17.9 -6.4 0.4 -2.9 1.6 -4.7 4.8 -7.4 l4.1 -3.6 -10.2 -51.2 c-5.6 -28.2 -10.4 -52 -10.7 -52.9 -0.4 -1.4 -1.6 -1.3 -12.2 0.3 -6.4 0.9 -15.6 2.1 -20.4 2.4 l-8.7 0.7 -1.1 3.3 c-1.3 3.8 -6.2 8.4 -9.1 8.4 -1.8 0 -1.9 1.6 -2.1 48.5 l-0.3 48.5 3.1 1 c3.7 1.3 6.9 4.4 8.4 8.4 l1.1 2.9 11.6 -0.7 c6.5 -0.4 17.1 -1.4 23.8 -2.2z m-140.5 -12.6 c0 -1.1 7.6 -4.8 9.8 -4.8 1.7 0 2.9 -5.2 12 -50.7 5.6 -28 10.3 -51.9 10.4 -53.2 0.3 -2.2 -0.3 -2.5 -7.7 -4.2 -4.4 -1.1 -13.3 -3.6 -19.8 -5.6 l-11.7 -3.6 -2.8 2.5 c-3.8 3.6 -6.5 4.8 -10.5 4.8 l-3.5 0 -15.2 36.8 c-8.4 20.2 -16.6 40 -18.3 44 l-3 7.3 2.3 2.1 c2.9 2.7 5.2 8.3 4.8 11.7 -0.3 2.5 0.2 2.8 10.7 6.4 6.1 2.1 17.3 5.5 25 7.7 l14 3.8 1.7 -2.1 c1 -1.2 1.8 -2.5 1.8 -2.9z m221.5 -5.7 c9.7 -3.3 13.9 -5.1 13.7 -6.1 -0.8 -3.3 1.1 -9 4 -11.9 l3 -3.1 -18.3 -44.4 c-12.5 -30 -18.8 -44.2 -19.7 -43.9 -2.6 1 -8.4 -0.9 -11.8 -3.9 l-3.5 -3.1 -11.7 3.6 c-6.4 2 -15.3 4.5 -19.7 5.6 -6.4 1.5 -8 2.2 -7.8 3.6 0 0.9 4.7 24.9 10.3 53.1 7.5 37.3 10.6 51.4 11.6 51.4 3.5 0 9.5 3.4 11.4 6.5 l2.1 3.3 11.2 -3 c6.2 -1.6 17.5 -5.1 25.2 -7.7z m76.5 -34.4 l9.5 -5.5 -0.3 -5.9 c-0.3 -4.7 0 -6.3 1.7 -8.5 1.2 -1.4 2.1 -2.9 2.1 -3.2 0 -1.2 -59.3 -89.6 -60.1 -89.6 -0.5 0 -3.9 2 -7.6 4.3 -3.7 2.4 -11.6 7 -17.5 10.1 l-10.8 5.8 0 4.1 c0 4.1 -2.1 8.5 -5.2 11 -1.3 1 -0.1 4.6 9.9 28.7 6.3 15.1 14.5 34.9 18.3 44 l6.8 16.5 4.8 0.5 c5.1 0.6 9.8 3 10.8 5.6 0.4 1.1 3.6 -0.1 14.3 -5.5 7.6 -3.8 18.1 -9.4 23.3 -12.4z m-376 17.4 c0 -1.8 5.7 -4.6 10.4 -5.1 l5 -0.5 5.3 -13 c2.8 -7.1 11 -26.9 18.1 -44 11.4 -27.3 12.8 -31.1 11.4 -32.2 -3.1 -2.5 -5.2 -6.9 -5.2 -10.9 l0 -4.2 -13.2 -7.2 c-7.3 -4 -15.2 -8.6 -17.6 -10.2 l-4.2 -2.9 -30 45.2 -29.9 45.3 2.2 3 c1.7 2.3 2.2 4.6 2.2 9 l0 5.8 6 3.6 c10.4 6.1 35.9 19.2 37.8 19.2 0.9 0 1.7 -0.4 1.7 -0.9z m-66.3 -40.2 c2.7 -1.7 4.5 -2 8.7 -1.7 l5.3 0.4 29.8 -45 c29.1 -43.9 29.7 -45 27.7 -46.5 -1.1 -0.9 -5.8 -4.4 -10.4 -7.8 -4.5 -3.4 -11.2 -8.6 -14.8 -11.7 -6.2 -5.3 -6.5 -5.4 -9.2 -4 -3.5 1.8 -9.9 1.8 -12.4 -0.1 -1.8 -1.3 -4 0.7 -36 32.7 l-34.2 34.1 1.5 3.5 c1.5 3.6 1 10.6 -0.8 11.8 -0.5 0.3 -0.9 0.9 -0.9 1.4 0 1.5 39.6 34.6 41.9 34.9 0.2 0.1 1.9 -0.9 3.8 -2z m486.3 -7 c5.8 -4.5 14.8 -11.9 20.1 -16.5 l9.7 -8.4 -1.7 -4.5 c-1.4 -4.1 -1.5 -4.9 0 -8.9 l1.6 -4.4 -33.8 -33.8 c-32.9 -32.9 -33.9 -33.7 -36.4 -32.6 -3.5 1.6 -9 1.5 -12.3 -0.2 -2.7 -1.4 -3 -1.3 -9.2 4 -6.5 5.5 -19.5 15.5 -24 18.5 l-2.4 1.6 30.1 44.9 c23.6 35.2 30.5 44.8 31.9 44.6 5 -0.8 10.1 -0.1 12.4 1.7 1.4 1.1 2.7 2 3 2 0.3 0.1 5.3 -3.6 11 -8z m-263.7 -42.1 c1.7 -4.1 4.6 -6.7 8.3 -7.7 l2.9 -0.7 0.3 -48.1 0.2 -48.1 -3.2 -1.1 c-4.3 -1.5 -7.5 -4.7 -8.8 -8.7 -1 -3.1 -1.5 -3.3 -6.8 -3.9 -9.3 -1.1 -23.9 -4.5 -33.4 -7.7 -4.9 -1.6 -9.1 -2.8 -9.3 -2.6 -0.3 0.2 -27.3 65.1 -38.1 91.3 l-3.3 8 2.5 2.3 c3 2.9 4.4 6.2 4.4 10.7 l0 3.4 11 3.5 c20.5 6.5 49.6 11.9 66.7 12.4 5.1 0.2 5.3 0.1 6.6 -3z m60.3 -0.3 c15.7 -2.7 26.3 -5.2 40 -9.6 l9.1 -2.9 0.5 -5.1 c0.4 -3.9 1.2 -5.7 3.6 -8.2 l3.1 -3.2 -20.5 -49.5 c-11.3 -27.2 -20.7 -49.7 -20.9 -49.8 -0.2 -0.2 -4.4 1 -9.3 2.6 -9.5 3.2 -24.1 6.6 -33.4 7.7 -5.3 0.6 -5.8 0.8 -6.8 3.9 -1.3 4 -4.5 7.2 -8.5 8.6 l-3 1 0.3 48 0.2 48.1 2.8 1 c3.8 1.5 6.2 3.9 7.9 7.8 l1.4 3.4 9.7 -0.7 c5.3 -0.4 16.1 -1.8 23.8 -3.1z m-335.4 -4.3 l4.6 1.5 34.1 -34 c32.2 -32.3 33.9 -34.1 32.5 -36.1 -1.8 -2.6 -1.8 -8.9 0 -12.4 1.4 -2.7 1.2 -3 -6.1 -11.7 -4.1 -5 -9.8 -12.3 -12.6 -16.2 -2.8 -4 -5.3 -7.3 -5.6 -7.3 -0.3 0 -20.5 13.4 -44.9 29.8 l-44.4 29.7 -0.1 6.7 c-0.2 4.9 -0.7 7.1 -2.1 8.7 -1.9 2 -1.8 2.1 5.1 11.3 3.9 5.1 11.3 14.3 16.6 20.4 l9.6 11.2 4.4 -1.6 c3.9 -1.4 4.8 -1.4 8.9 0z m584.3 -0.1 l4.6 1.7 9.5 -11.1 c5.2 -6.1 12.7 -15.3 16.6 -20.3 l7 -9.2 -2.1 -2.9 c-2 -2.7 -3 -9.3 -2 -13.1 0.3 -0.9 -16.6 -12.8 -44.1 -31.3 -24.5 -16.4 -44.8 -29.9 -45.1 -29.9 -0.3 0 -2.8 3.3 -5.6 7.3 -2.8 3.9 -8.5 11.2 -12.6 16.2 -7.5 8.9 -7.5 8.9 -6 11.8 1.4 2.8 1.4 4.2 0.1 13.4 -0.2 1.8 6.5 9.1 33 35.6 l33.4 33.4 4.4 -1.6 c4 -1.5 4.8 -1.4 8.9 0z m-417.5 -21 c1.2 -2.3 8.8 -5.4 12.1 -4.9 2.5 0.3 0.7 4.4 30.9 -68.7 l12.8 -31 -6.6 -3.1 c-8.3 -3.8 -18.3 -10 -28.4 -17.5 -4.3 -3.2 -8 -5.4 -8.3 -4.9 -0.3 0.5 -2.3 1.4 -4.5 2 -3 0.8 -4.8 0.7 -8.2 -0.5 l-4.3 -1.5 -33.8 33.8 c-24.1 24.1 -33.5 34.1 -33 35.2 1.3 3 1.5 10.2 0.2 13.2 -1.1 2.7 -1 3.2 0.8 4.7 25.3 20.5 37.4 28.9 56.3 39 6.3 3.3 11.8 6.1 12.2 6.1 0.4 0 1.2 -0.9 1.8 -1.9z m255.9 -4.2 c18.8 -10 31.3 -18.6 56.4 -39 1.6 -1.3 1.7 -2 0.8 -3.7 -1.5 -2.8 -1.4 -11.4 0.2 -13.5 1.1 -1.6 -2.8 -5.8 -32.8 -35.7 l-34 -33.9 -4.3 1.4 c-4.4 1.6 -8.2 1.2 -11.5 -1 -1.6 -1.1 -2.9 -0.5 -9.5 4.5 -9.6 7.2 -19.7 13.4 -28.4 17.4 l-6.7 3.1 20.8 50 c20.5 49.6 20.7 50 23.4 49.7 3.2 -0.4 11.3 3.2 12.1 5.3 0.3 0.8 0.9 1.5 1.2 1.5 0.4 0 5.9 -2.8 12.3 -6.1z m209.4 -37.7 l5.9 0.3 5.5 -9.5 c3 -5.2 8.6 -15.7 12.4 -23.2 6.3 -12.6 6.7 -13.8 5.1 -15 -3.3 -2.5 -4.7 -5.1 -5.2 -10.1 l-0.5 -5 -16.5 -6.8 c-9.1 -3.7 -28.9 -11.9 -44 -18.2 -24.1 -10 -27.7 -11.2 -28.7 -9.9 -2.6 3.1 -6.9 5.2 -11 5.2 -4.1 0 -4.3 0.2 -6.9 5.3 -3.8 7.4 -11.2 20.4 -14.7 25.5 -1.5 2.3 -2.7 4.7 -2.5 5.2 0.2 0.6 20.3 14.4 44.8 30.8 l44.5 29.7 2.9 -2.3 c2.5 -2 3.9 -2.3 8.9 -2z m-631.8 -25.9 c24.5 -16.3 44.5 -30 44.5 -30.5 0 -0.5 -1.3 -2.8 -2.9 -5.1 -1.5 -2.3 -6.1 -10.2 -10.1 -17.4 l-7.2 -13.3 -4 0 c-4.5 0 -9.3 -2.2 -10.8 -5 -1 -1.8 -1.6 -1.6 -14.3 3.6 -7.2 3.1 -20.2 8.4 -28.7 12 -8.5 3.5 -22.5 9.2 -31 12.8 l-15.5 6.4 -0.5 4.9 c-0.5 4.8 -2 7.9 -4.7 9.6 -0.7 0.4 -1.3 1.5 -1.3 2.3 0 1.9 9.7 21.1 17.6 35 l6.4 11 5.7 -0.4 c4.8 -0.3 6.3 0 8.3 1.7 1.4 1.1 2.8 2 3.3 2.1 0.4 0 20.7 -13.3 45.2 -29.7z m491.2 0.7 c2.3 0 5.4 0.5 6.9 1.1 2.3 0.8 3.1 0.7 4.4 -0.9 20.1 -24.7 29.3 -38 39.1 -56.7 6.2 -11.8 6.2 -11.8 4.1 -13.4 -2.7 -2 -5.4 -8.5 -5 -11.9 0.3 -2.4 -0.4 -2.9 -11.2 -7.3 -6.3 -2.7 -28.8 -12 -50 -20.7 l-38.5 -16 -3.1 6.6 c-4 8.7 -10.2 18.8 -17.4 28.4 -5 6.6 -5.6 7.9 -4.5 9.5 2.2 3.3 2.6 7.1 1 11.5 l-1.4 4.3 33.7 34 c30.9 31.1 33.9 33.9 35.7 32.8 1.1 -0.7 3.8 -1.3 6.2 -1.3z m-408.2 0.6 c2.8 0 6 0.2 7.2 0.5 1.8 0.3 8.4 -5.8 35.7 -33.1 18.5 -18.4 33.6 -33.5 33.6 -33.6 0 -0.1 -0.7 -1.8 -1.6 -3.9 -1.6 -3.9 -1.2 -8.5 1.1 -11.8 1.1 -1.6 0.6 -2.8 -4.5 -9.5 -7.2 -9.7 -13.4 -19.8 -17.4 -28.4 l-3.1 -6.7 -44.5 18.5 c-24.5 10.1 -47 19.5 -50 20.8 -4.8 2 -5.5 2.6 -5.2 4.9 0.4 3.3 -2.3 9.8 -5 11.8 -2.1 1.6 -2.1 1.6 4.1 13.4 7.7 14.8 18.8 31.5 29.4 44.6 4.5 5.6 8.8 11.1 9.6 12.1 1 1.4 2 1.7 3.5 1.2 1.2 -0.4 4.4 -0.8 7.1 -0.8z m192.2 -32.3 c1.3 -2.6 3.4 -4.5 6.6 -6.2 l4.7 -2.3 0 -52.8 c0 -44.4 -0.2 -53.1 -1.4 -54.3 -0.8 -0.8 -3.5 -1.7 -6.1 -2 -9.9 -1.4 -21.4 -9.1 -27.3 -18.4 -2.7 -4.4 -5.2 -11.2 -6.7 -18.5 l-0.5 -2.8 -54.5 0 c-53.5 0 -54.5 0 -54.5 2 0 2.6 -6.5 9 -9.1 9 -2 0 -2.1 0.4 -1.4 6.5 2.7 25.1 13.9 54 29.4 75.5 5.7 8 7.2 9.4 9.2 9.2 1.3 -0.2 4.8 -0.4 7.6 -0.5 4.9 -0.2 5.6 0.1 9 3.6 3.5 3.4 3.8 4.2 3.7 9 -0.1 2.8 -0.3 6.3 -0.5 7.6 -0.3 2 1.1 3.4 9.1 9.2 19.7 14.2 42.6 23.8 67.5 28.3 12.5 2.2 13 2.2 15.2 -2.1z m48.8 0.2 c20.4 -4.6 41.4 -14.1 58.5 -26.4 8 -5.7 9.4 -7.2 9.2 -9.2 -0.2 -1.3 -0.4 -4.8 -0.5 -7.7 -0.2 -5 0.1 -5.6 3.5 -8.7 4.6 -4.3 7.9 -5.1 13.7 -3.6 5.4 1.4 5.1 1.7 15.2 -13.3 13.7 -20.3 23.6 -46.8 26.4 -70.3 l0.7 -6.1 -3.5 -1.7 c-4.2 -2 -6.1 -4 -7.3 -7.8 l-0.9 -2.8 -54.3 -0.2 -54.2 -0.2 -0.6 3.5 c-1.1 6.4 -3.6 13.5 -6.6 18.3 -5.8 9.1 -17.1 16.8 -26.9 18.3 -2.4 0.4 -5 1 -5.7 1.3 -1 0.6 -1.2 12.1 -1.2 54.5 l0 53.8 4.2 2.1 c2.7 1.5 4.9 3.5 6.1 6 l2 3.9 6.1 -0.7 c3.3 -0.4 10.5 -1.8 16.1 -3z m-362.4 -26.1 c23.3 -9.7 43 -17.8 43.7 -18.1 0.6 -0.3 1.2 -1.8 1.2 -3.3 0 -4 1.7 -8.1 4.8 -11.3 l2.6 -2.7 -2.9 -8.8 c-1.6 -4.8 -4.1 -13.6 -5.6 -19.7 -1.8 -7.6 -3.1 -10.9 -4 -10.8 -0.8 0.1 -24.7 4.8 -53.1 10.4 -46.6 9.2 -51.8 10.4 -51.8 12.1 0 3.2 -3.7 9.2 -6.8 11.1 l-3 1.7 2.9 11.3 c4.9 18.3 12.4 39.2 13.9 38.9 3.3 -0.8 9 1.1 11.7 3.8 1.5 1.6 3.1 3 3.4 3 0.3 0 19.6 -7.9 43 -17.6z m696.9 15.7 c1.2 -2.3 8.8 -5.4 12.1 -4.9 2.2 0.3 2.6 -0.7 7.1 -13.7 2.6 -7.7 6 -19.1 7.7 -25.3 l3 -11.2 -3 -1.5 c-3 -1.6 -6.9 -8 -6.9 -11.3 0 -1.8 -5 -2.9 -51.7 -12.1 -28.5 -5.6 -52.4 -10.3 -53.2 -10.4 -0.9 -0.1 -2 2.3 -3.2 7.8 -1.1 4.4 -3.6 13.3 -5.6 19.7 l-3.6 11.7 3.1 3.5 c2.9 3.4 4.7 8.5 4 11.6 -0.2 0.8 0.6 1.8 1.7 2.3 7.7 3.6 85.2 35.6 86.2 35.6 0.7 0.1 1.7 -0.8 2.3 -1.8z m-574 -66.6 c26.1 -10.8 47.7 -19.8 47.8 -20 0.2 -0.2 -1 -4.4 -2.6 -9.3 -3.2 -9.5 -6.6 -24.1 -7.7 -33.4 -0.6 -5.2 -0.9 -5.7 -3.8 -6.7 -4.1 -1.5 -7.4 -4.7 -8.7 -8.5 l-1 -3.1 -47.7 0.2 -47.8 0.2 -1.4 2.8 c-2.1 4.3 -4.3 6.4 -8 8 l-3.4 1.4 0.7 9.7 c1.4 19.1 6.6 45.3 12.7 63.8 l3 9.2 5 0.4 c4 0.4 5.8 1.2 8.1 3.6 2.4 2.4 3.6 2.9 5.2 2.2 1.2 -0.4 23.5 -9.6 49.6 -20.5z m468.9 14.7 l5 -0.4 3 -9.2 c5.5 -16.7 10 -38 12.1 -56.8 1.6 -15.7 1.5 -16.5 -2.2 -18.1 -3.9 -1.7 -6.3 -4.1 -7.7 -7.9 l-1 -2.8 -48 -0.2 -48 -0.3 -0.6 2.2 c-0.8 3.5 -5.3 8.1 -8.9 9.3 -3.2 1 -3.4 1.4 -4.1 6.8 -1.1 9.2 -4.5 23.9 -7.7 33.4 -1.6 4.9 -2.8 9.1 -2.6 9.3 0.1 0.2 22.6 9.6 49.8 20.9 l49.5 20.5 3.2 -3.1 c2.5 -2.4 4.3 -3.2 8.2 -3.6z m-605 -31.3 c27.8 -5.5 51.3 -10.2 52.2 -10.5 1.4 -0.4 1.5 -1.2 0.3 -8.2 -0.8 -4.2 -1.9 -13.5 -2.7 -20.6 l-1.2 -13 -2.9 -0.7 c-3.8 -1 -7.3 -4.4 -8.6 -8.3 l-1 -3.1 -47.9 0.3 -47.9 0.2 -1.2 2.9 c-1.5 3.6 -4.6 6.6 -8.4 8.1 l-2.9 1.1 0.7 11.6 c0.7 11.2 3 32.9 4.2 38.4 0.4 2.2 1.2 2.8 4.4 3.3 2.9 0.4 4.7 1.6 7.2 4.6 1.8 2.2 3.7 4 4.2 4 0.5 0 23.7 -4.5 51.5 -10.1z m732.4 7.2 c1.8 -3 7.1 -6.1 10.5 -6.1 1.4 0 2.2 -0.8 2.6 -2.7 1.2 -5.7 3.5 -27.2 4.2 -38.5 l0.7 -11.7 -3.4 -1.4 c-3.9 -1.7 -6.3 -4.1 -7.8 -7.9 l-1 -2.8 -48.1 -0.2 -48 -0.3 -1 3 c-1.4 4 -4.6 7.2 -8.4 8.5 l-3.2 1 -1.3 13.3 c-0.7 7.2 -1.8 16.5 -2.5 20.5 l-1.3 7.2 3.6 0.9 c6.2 1.5 98.5 19.9 100.6 20 1.3 0.1 2.7 -1 3.8 -2.8z m-383.8 -34.6 c11.7 -3.1 20.9 -10.5 26.1 -21 11.8 -24.2 -2.6 -51.7 -29.6 -56.7 -20.6 -3.9 -41.1 11.1 -45.2 33 -2.2 11.7 2.3 25.4 11.3 34.3 10 10.1 23.8 13.9 37.4 10.4z m-311.6 -43 c2 -4.4 5.1 -7.4 8.5 -8.3 l3.1 -0.8 1.2 -13 c0.8 -7.1 1.9 -16.4 2.7 -20.7 l1.3 -7.7 -3.6 -0.9 c-2 -0.5 -25.7 -5.2 -52.6 -10.6 l-49.1 -9.7 -4.6 4.6 c-3.4 3.5 -5.3 4.6 -7.6 4.6 -2.5 0 -3.1 0.5 -3.6 2.8 -1.2 5.6 -3.5 27.1 -4.2 38.4 l-0.7 11.7 3.5 1.4 c3.8 1.6 7.5 5.7 8.4 9.3 l0.6 2.3 47.6 -0.2 47.7 -0.2 1.4 -3z m123.5 1.1 c0.9 -3.7 5.3 -8.3 9 -9.6 3.2 -1 3.4 -1.4 4.1 -6.8 1.1 -9.2 4.5 -23.9 7.7 -33.4 1.6 -4.9 2.8 -9.1 2.6 -9.3 -0.2 -0.3 -62.9 -26.4 -91.3 -38.1 l-8 -3.2 -3.2 3 c-2.4 2.4 -4.4 3.2 -8.2 3.6 l-5.1 0.5 -2.9 9.1 c-6.3 19.7 -11.3 44.8 -12.7 63.8 l-0.7 9.7 2.9 1.1 c4.1 1.6 7.2 4.7 8.4 8.6 l1.1 3.3 47.9 0.1 47.8 0 0.6 -2.4z m135.4 0.7 c0.5 -1 1.2 -3.7 1.6 -6 2.5 -16.9 17.4 -30.6 36.9 -33.8 l3.7 -0.6 -0.2 -54.2 c-0.3 -53.3 -0.3 -54.2 -2.3 -54.6 -3.4 -0.6 -7.2 -3.9 -9 -7.7 l-1.7 -3.6 -5.6 0.7 c-26.2 3.1 -53.7 13.9 -75.2 29.4 -7.9 5.7 -9.4 7.3 -9.2 9.2 1.3 9.8 1.2 10.5 -0.7 13.7 -1.2 1.8 -3.5 4.1 -5.3 5.3 -3.2 1.9 -3.9 2 -13.7 0.7 -5.2 -0.7 -24.9 32.3 -31.5 52.7 -3.1 9.5 -6.2 23.6 -7.2 32.3 -0.6 5.8 -0.5 6.2 1.4 6.2 2.6 0 9.2 6.4 9.2 9 0 1 0.6 2.1 1.3 2.3 0.6 0.3 24.9 0.6 53.9 0.6 49.3 0.1 52.8 0 53.6 -1.6z m195.1 -0.8 c0.6 -3.4 3.9 -7.2 7.7 -9 l3.6 -1.7 -0.7 -5.6 c-1 -8.5 -4.2 -22.7 -7.1 -31.7 -3.9 -12.1 -14.5 -32.9 -22.3 -43.5 -5.7 -7.9 -7.3 -9.4 -9.2 -9.2 -1.3 0.2 -4.2 0.6 -6.4 0.8 -7.8 1 -15.2 -7 -14 -15.1 0.4 -2.2 0.7 -4.8 0.8 -5.9 0.3 -2.5 -15.6 -13.9 -29.3 -21 -16.5 -8.5 -37.2 -15 -55.2 -17.1 l-5.6 -0.7 -1.7 3.6 c-1.8 3.7 -5.6 7.1 -8.8 7.7 -1.6 0.4 -1.8 3.6 -2 54.7 l-0.2 54.2 3.5 0.6 c6.4 1.1 13.5 3.6 18.3 6.6 9.1 5.8 16.8 17.1 18.3 26.9 1.3 8.7 -4.3 7.9 56.2 7.7 52.8 -0.3 53.7 -0.3 54.1 -2.3z m124.1 -0.9 c1.2 -3.9 4.3 -7 8.4 -8.6 l2.9 -1.1 -0.7 -9.7 c-1.4 -19.1 -6.4 -44.1 -12.7 -63.9 l-3 -9.3 -4.4 0 c-3.7 0 -5.2 -0.6 -8.3 -3.4 l-3.8 -3.5 -28.4 11.8 c-15.7 6.5 -37.9 15.8 -49.5 20.6 -11.5 4.7 -21.2 8.8 -21.3 9 -0.2 0.2 1 4.4 2.6 9.3 3.2 9.5 6.6 24.1 7.7 33.4 0.6 5.4 0.8 5.8 4 6.8 3.8 1.3 8.2 5.9 9.1 9.6 l0.6 2.4 47.8 0 47.8 0 1.2 -3.4z m123.9 -0.3 c2.3 -4.5 4.6 -6.8 8.5 -8.3 l2.9 -1.1 -0.7 -11.6 c-0.7 -11.4 -3 -32.9 -4.2 -38.5 -0.5 -2.3 -1.1 -2.8 -3.7 -2.8 -2.3 0 -4.1 -1.1 -7.5 -4.6 l-4.4 -4.6 -49.1 9.7 c-27.1 5.3 -50.8 10.1 -52.8 10.6 l-3.6 0.9 1.3 7.2 c0.7 4 1.8 13.3 2.5 20.5 l1.3 13.2 3 1.1 c4.1 1.4 7.3 4.6 8.6 8.6 l1.1 3.3 47.4 0.1 47.4 0 2 -3.7z m-682.6 -62.3 c1 -4.1 3.4 -12.8 5.4 -19.3 l3.6 -11.7 -2.6 -2.8 c-3 -3.1 -4.7 -7.2 -4.7 -11.1 0 -3.1 3.4 -1.6 -60.8 -28.1 l-27.3 -11.3 -2.1 2.3 c-2.7 2.9 -8.3 5.2 -11.7 4.8 -2.5 -0.3 -2.7 0.1 -7.3 13.7 -2.5 7.7 -6 19.1 -7.6 25.2 l-3.1 11.3 3.1 1.7 c3.1 1.9 6.8 7.8 6.8 11.1 0 1.7 5.2 3 52.8 12.4 29 5.8 53 10.2 53.3 9.9 0.3 -0.3 1.3 -4 2.2 -8.1z m622 -2.1 c46.5 -9.2 51.7 -10.4 51.7 -12.1 0 -3.3 3.7 -9.2 6.8 -11.1 l3.1 -1.7 -3 -11.3 c-5.1 -19 -12.3 -39.2 -13.9 -38.9 -3.3 0.8 -9 -1.1 -11.9 -4 l-3.1 -3 -24.8 10.2 c-13.6 5.6 -33.4 13.8 -43.9 18.2 l-19.3 8.1 0 3.4 c0 4 -1.2 6.7 -4.8 10.5 l-2.5 2.8 3.6 11.7 c2 6.5 4.4 15 5.3 18.8 2.2 9.6 2.2 9.5 3.6 9 0.7 -0.2 24.6 -5 53.1 -10.6z m-481.4 -17.9 c2.9 -4.7 7.4 -11.2 10.1 -14.5 4.1 -5.4 4.5 -6.3 3.4 -8 -2 -3.1 -2.3 -7.8 -0.8 -12.1 l1.4 -3.9 -33.8 -33.8 c-23.7 -23.7 -34.1 -33.5 -35.2 -33.1 -4.1 1.8 -10.1 2 -13.1 0.6 -2.9 -1.5 -3.2 -1.4 -4.8 0.5 -20.8 25.6 -29.4 38 -39.2 56.8 l-6.1 11.6 2.2 2.1 c2.9 2.7 5.2 8.3 4.8 11.6 -0.3 2.5 1.1 3.1 49.7 23.3 l50 20.8 3.1 -6.7 c1.7 -3.7 5.4 -10.5 8.3 -15.2z m349.1 -0.3 c45.2 -18.8 46.5 -19.4 46.2 -21.9 -0.4 -3.4 2.3 -9.9 5 -11.9 2.1 -1.6 2.1 -1.6 -4 -13.2 -3.3 -6.3 -9.3 -16.6 -13.4 -22.9 -6.3 -9.5 -11 -15.7 -25.9 -34.1 -1.5 -1.8 -2 -1.9 -4.7 -0.8 -3 1.3 -10.2 1.1 -13.2 -0.2 -1.1 -0.5 -11.2 9 -35.4 33.2 -30.2 30.2 -33.8 34.1 -32.6 35.6 1.8 2.2 1.8 10.7 -0.1 13.6 -1.5 2.1 -1.2 2.6 4.6 10.3 6.5 8.7 15.3 23.4 18 30.3 l1.7 4.2 3.6 -1.5 c2.1 -0.8 24.6 -10.1 50.2 -20.7z m-481.3 -34.9 c1.6 -1 4.6 -1.8 7 -1.8 l4.1 0 5.7 -10.7 c3.2 -6 7.7 -13.9 10.1 -17.6 2.4 -3.7 4.4 -7.1 4.4 -7.6 0 -0.8 -88.4 -60.1 -89.6 -60.1 -0.3 0 -1.8 0.9 -3.2 2.1 -2.2 1.7 -3.8 2 -8.5 1.7 l-5.9 -0.3 -5.5 9.5 c-3 5.2 -8.6 15.7 -12.4 23.2 -6.3 12.6 -6.7 13.8 -5.1 15 3.3 2.5 4.7 5.1 5.2 10.1 l0.5 5 44 18.2 c38.5 16 44.2 18 45.2 16.7 0.7 -0.8 2.5 -2.4 4 -3.4z m595.8 -12.5 c8.8 -3.7 22.8 -9.4 31 -12.8 l15 -6.2 0.5 -5 c0.5 -5 1.9 -7.6 5.2 -10.1 1.6 -1.2 1.2 -2.4 -5.1 -15 -3.8 -7.5 -9.4 -18 -12.4 -23.2 l-5.5 -9.5 -5.9 0.3 c-4.7 0.3 -6.3 0 -8.5 -1.7 -1.4 -1.2 -2.9 -2.1 -3.2 -2.1 -0.6 0 -87.4 57.6 -89 59.1 -0.5 0.5 1.2 4.3 4.1 9.1 2.8 4.6 7.4 12.6 10.2 17.9 l5.2 9.7 4 0 c4.1 0.1 10.3 3.2 11.3 5.7 0.4 1.1 3.2 0.3 13.8 -4.1 7.3 -3 20.5 -8.5 29.3 -12.1z m-408.5 -7.4 c4.7 -2.9 11.5 -6.6 15.2 -8.3 l6.6 -3.1 -15.9 -38.5 c-8.8 -21.2 -18.2 -43.7 -20.8 -50 -3.1 -7.4 -5.3 -11.4 -6.1 -11.2 -3.3 0.8 -9.2 -1.2 -12 -4 l-3 -3 -11.6 6.1 c-6.4 3.4 -16.7 9.5 -23 13.6 -9.6 6.4 -15.8 11.1 -33.8 25.7 -1.8 1.4 -1.9 1.9 -0.7 4.1 1.3 2.5 1.2 10.6 -0.2 13.7 -0.5 1.1 8.4 10.7 32.8 35 18.5 18.4 33.7 33.6 33.8 33.7 0.2 0.1 2.1 -0.4 4.4 -1.2 4.1 -1.4 7.8 -1 11.9 1.3 1.4 0.8 3 0 7.8 -3.8 3.4 -2.6 9.9 -7.2 14.6 -10.1z m206.4 12 c2.2 0.6 4.6 1.3 5.3 1.4 0.7 0.1 16.3 -14.9 34.8 -33.3 24.3 -24.2 33.4 -33.9 32.9 -35 -1.4 -3 -1.6 -10.2 -0.3 -13.2 1.1 -2.7 1 -3.2 -0.8 -4.7 -18.4 -14.9 -24.6 -19.6 -34.1 -25.9 -6.3 -4.1 -16.5 -10.1 -22.8 -13.4 l-11.4 -6 -3 3 c-3 3 -8.6 4.8 -11.9 3.7 -1.4 -0.4 -2 0.1 -2.5 1.7 -0.3 1.3 -9.5 23.9 -20.5 50.2 l-19.9 48 9.2 4.5 c9.1 4.6 23 13.4 29.5 18.9 l3.4 2.8 4 -2 c3.5 -1.7 4.5 -1.8 8.1 -0.7z m-172.4 -27.8 c9.2 -3.1 24 -6.5 33.2 -7.6 5.3 -0.6 5.8 -0.8 6.8 -3.9 1.3 -4 4.5 -7.2 8.8 -8.7 l3.2 -1.1 0 -47.8 -0.1 -47.9 -3.3 -1.1 c-3.9 -1.2 -7 -4.3 -8.6 -8.4 l-1.1 -2.9 -9.7 0.7 c-19 1.4 -44.1 6.4 -63.8 12.7 l-9.1 2.9 -0.5 5.1 c-0.4 3.9 -1.2 5.7 -3.6 8.2 l-3.1 3.2 6.3 15 c3.4 8.3 12.7 30.6 20.6 49.8 7.9 19.1 14.6 34.7 14.9 34.7 0.4 0 4.4 -1.3 9.1 -2.9z m136.2 -46.8 l20.7 -49.8 -3.1 -3.2 c-2.4 -2.5 -3.2 -4.4 -3.6 -8.2 l-0.5 -5.1 -9.1 -2.9 c-17.9 -5.7 -38.2 -10 -56.8 -12.1 -15.3 -1.6 -16.7 -1.5 -17.9 1.7 -1.4 3.9 -3.8 6.3 -7.6 7.9 l-3.3 1.4 -0.2 48 -0.3 48 3 1 c4 1.4 7.2 4.6 8.5 8.6 1 3.1 1.5 3.3 6.8 3.9 8.6 1 25.8 5 33.7 7.8 3.9 1.4 7.5 2.6 8.1 2.6 0.6 0.1 10.3 -22.3 21.6 -49.6z m-318.9 35 c2.6 -3.8 8.2 -11.1 12.6 -16.3 7.7 -9.2 7.9 -9.5 6.5 -12.2 -1.8 -3.5 -1.8 -9.9 0.1 -12.4 1.3 -1.8 -0.7 -4 -32.6 -36 l-34.1 -34.1 -4.4 1.6 c-4 1.5 -4.8 1.4 -8.9 0 l-4.6 -1.7 -9.6 11.2 c-5.3 6.1 -12.7 15.3 -16.6 20.4 -6.9 9.2 -7 9.3 -5.1 11.3 1.4 1.6 1.9 3.8 2.1 8.8 l0.1 6.6 44.4 29.7 c24.4 16.4 44.6 29.8 44.9 29.8 0.3 0 2.6 -3 5.2 -6.7z m521.7 -23.2 l44.5 -29.8 -0.3 -5.9 c-0.3 -4.9 0 -6.4 1.8 -8.7 l2.2 -2.8 -7 -9.2 c-3.8 -5.1 -11.2 -14.2 -16.5 -20.3 l-9.6 -11.2 -4.6 1.7 c-4.1 1.4 -4.9 1.5 -8.9 0 l-4.4 -1.6 -33.8 33.8 c-32.9 32.9 -33.7 33.9 -32.6 36.4 1.6 3.5 1.5 9 -0.2 12.3 -1.4 2.7 -1.2 3 6.1 11.7 4.1 5 9.8 12.3 12.6 16.3 2.8 3.9 5.3 7.2 5.6 7.2 0.3 0 20.6 -13.5 45.1 -29.9z m-490.7 -25.1 c2.1 0 5 0.6 6.5 1.4 2.7 1.4 3 1.2 12.2 -6.5 5.2 -4.4 12.5 -10 16.3 -12.6 3.7 -2.6 6.7 -4.9 6.7 -5.2 0 -0.3 -13.4 -20.6 -29.8 -45 l-29.8 -44.5 -6 0.3 c-4.8 0.2 -6.5 -0.2 -8.7 -1.9 l-2.8 -2.2 -9.2 7 c-5.1 3.8 -14.2 11.2 -20.3 16.5 l-11.2 9.6 1.6 4.5 c1.5 4.1 1.5 4.9 0.1 8.8 l-1.6 4.3 34 34.2 c32.2 32.3 34.2 34.1 36.1 32.7 1.1 -0.8 3.8 -1.4 5.9 -1.4z m410.1 0.3 c2.2 0.3 5.1 0.7 6.3 0.9 1.8 0.2 9.3 -6.7 35.7 -33.1 l33.4 -33.3 -1.4 -3.4 c-1.8 -4.3 -1.8 -7.2 0.1 -10.8 0.8 -1.5 1.5 -3 1.5 -3.1 0 -0.8 -23.2 -20.3 -32.3 -27.2 l-9.8 -7.4 -3.5 2.2 c-2.8 1.7 -4.6 2 -8.8 1.7 l-5.3 -0.4 -29.4 44.3 c-16.2 24.5 -29.5 44.8 -29.7 45.3 -0.2 0.4 3.2 3.3 7.5 6.3 4.3 3 11.8 8.9 16.8 13 8.9 7.5 9 7.5 11.9 6 1.8 -0.9 4.3 -1.3 7 -1z m-357.7 -29.7 c3.7 -2.4 11.6 -6.9 17.6 -10.1 l10.7 -5.7 0 -4.1 c0 -4.1 2.1 -8.5 5.2 -11 1.4 -1.1 0 -4.9 -11.3 -32.2 -7.1 -17 -15.3 -36.8 -18.2 -44 l-5.3 -13 -5.1 -0.5 c-5 -0.5 -7.6 -1.9 -10.1 -5.3 -1.2 -1.6 -2.4 -1.2 -16 5.7 -8.1 4.1 -18.5 9.8 -23.2 12.6 l-8.5 5 0.3 5.9 c0.3 4.9 0 6.2 -2 8.6 l-2.4 2.7 30 44.9 c16.5 24.7 30.3 44.9 30.7 44.9 0.5 0 3.9 -2 7.6 -4.4z m341.3 -40.8 l29.9 -45.2 -2.2 -3 c-1.7 -2.3 -2.2 -4.6 -2.2 -9 l0 -5.9 -8.5 -4.9 c-11.7 -6.8 -33.7 -17.8 -35.4 -17.8 -0.8 0 -1.9 0.6 -2.3 1.3 -1.7 2.7 -4.8 4.2 -9.6 4.7 l-4.9 0.5 -6.4 15.5 c-3.6 8.5 -9.3 22.5 -12.8 31 -3.6 8.5 -8.9 21.5 -12 28.7 -5.2 12.7 -5.4 13.3 -3.6 14.3 2.8 1.5 5 6.3 5 10.9 l0 3.9 12.4 6.7 c6.9 3.7 14.6 8.2 17.3 10 2.6 1.9 4.9 3.4 5.1 3.4 0.2 0.1 13.7 -20.2 30.2 -45.1z m-279.4 12.1 c3.2 -1.1 11.8 -3.5 18.9 -5.4 12.2 -3.2 13 -3.5 12.7 -5.7 -0.1 -1.3 -4.8 -25.1 -10.4 -53 -10 -50.5 -10.1 -50.8 -12.5 -50.8 -3.5 0 -8.1 -3 -10.4 -6.7 l-2 -3.1 -11.2 3 c-6.2 1.6 -17.5 5.1 -25.2 7.6 -13.6 4.6 -14 4.8 -13.7 7.3 0.4 3.5 -2.3 10 -5 12 -2.1 1.7 -2.1 1.7 11.7 35 24.3 59.1 22.4 54.9 25.7 54.9 3.8 0 8.8 2.2 11.2 4.9 2.4 2.6 2.9 2.6 10.2 0z m191.4 -0.4 c2.6 -2.8 8.2 -4.9 11.1 -4.2 2.5 0.7 1.3 3.1 21.9 -46.6 l17.3 -41.8 -2.3 -2.1 c-2.9 -2.7 -5.2 -8.3 -4.8 -11.6 0.3 -2.6 -0.2 -2.8 -13.7 -7.4 -7.7 -2.5 -19 -6 -25.2 -7.6 l-11.2 -3 -2.1 3.3 c-2.1 3.4 -7.3 6.5 -10.8 6.5 -1.7 0 -2.8 4.5 -12 50.8 -5.6 27.9 -10.3 51.7 -10.4 53 -0.3 2.2 0.5 2.5 12.7 5.7 7.2 1.9 15.5 4.3 18.5 5.4 7.2 2.6 8.2 2.6 11 -0.4z m-127.8 -12.7 l12.8 -1.2 1 -3.1 c1.2 -3.6 4.1 -6.6 8.5 -8.6 l3 -1.4 0.3 -47.7 0.2 -47.6 -3.3 -1.1 c-4 -1.3 -7.1 -4.4 -8.7 -8.5 l-1.1 -2.9 -11.6 0.7 c-11.4 0.7 -32.9 3 -38.5 4.2 -2.3 0.5 -2.8 1.1 -2.8 3.6 0 2.3 -1.1 4.2 -4.6 7.7 l-4.6 4.6 10.2 51 c5.5 28 10.3 51.7 10.6 52.6 0.4 1.4 1.2 1.5 8.1 0.3 4.3 -0.8 13.5 -1.9 20.5 -2.6z m92.9 -50.4 l10.2 -51.2 -4.2 -3.7 c-3 -2.7 -4.3 -4.8 -4.7 -7.6 -0.5 -3.1 -1.1 -3.9 -3.3 -4.3 -5.5 -1.2 -27.2 -3.5 -38.3 -4.2 l-11.7 -0.7 -1.4 3.4 c-1.6 3.8 -3.8 6 -8.1 8 -1.6 0.8 -2.8 1.7 -2.7 2.2 0 0.4 0.1 21.9 0.1 47.7 l0 47 2.8 1.1 c3.8 1.5 7 4.7 8.2 8.4 l1 3.1 13.3 1.3 c7.2 0.7 16.4 1.8 20.2 2.5 6.1 1.1 7.1 1 7.7 -0.3 0.4 -0.9 5.3 -24.6 10.9 -52.7z"/>
 </g>
 <g fill="#55bb58">
  <path d="M524.5 865.6 c-1.6 -0.7 -4.1 -2.6 -5.5 -4.1 -2.1 -2.2 -2.5 -3.6 -2.5 -8.7 0 -5.8 0.2 -6.2 4.1 -9.7 4.8 -4.2 8.4 -4.9 14.3 -2.5 5.1 2 8.1 6.6 8.1 12.4 0 5.5 -2.5 9.6 -7.5 12 -4.8 2.3 -6.9 2.4 -11 0.6z"/>
  <path d="M331.6 727.1 c-9.5 -6.3 -8.7 -20.5 1.4 -24.5 5.2 -2.1 6.5 -2 11.6 0.4 5.3 2.6 7.8 7.4 7.1 13.7 -1.1 9.6 -12.4 15.5 -20.1 10.4z"/>
  <path d="M646.4 664.1 c-4.8 -2.9 -6.4 -5.9 -6.4 -11.9 0 -5 0.3 -5.8 3.9 -9.3 3.4 -3.5 4.4 -3.9 8.7 -3.9 6.1 0 9.2 1.6 12.1 5.9 8.1 11.9 -6.1 26.7 -18.3 19.2z"/>
  <path d="M62.5 618.6 c-1.7 -0.7 -4.4 -2.8 -5.9 -4.7 -2.5 -3 -2.8 -3.9 -2.4 -8.8 0.5 -5 0.9 -5.9 4.7 -9.2 3.8 -3.4 4.7 -3.7 9.1 -3.4 7.9 0.5 13 5.8 13 13.5 0 5.1 -2.1 8.8 -6.6 11.8 -3.8 2.5 -7.5 2.7 -11.9 0.8z"/>
  <path d="M328.9 578.1 c-5.1 -1.6 -7.1 -3.4 -9.1 -7.7 -6.2 -14.1 11.5 -26 22.2 -14.9 7.7 7.9 3.4 20.9 -7.5 22.8 -1.6 0.3 -4.2 0.2 -5.6 -0.2z"/>
  <path d="M846.8 540.4 c-1.6 -0.8 -3.7 -3.3 -4.9 -5.5 -5.2 -10.4 2.3 -20.9 14 -19.6 3.6 0.4 5.2 1.3 7.8 4 4.3 4.8 5.1 9.4 2.4 14.9 -1.1 2.4 -3.4 5.1 -5 6.1 -3.5 2.1 -10.6 2.2 -14.3 0.1z"/>
  <path d="M31.6 461 c-6.4 -2 -10.3 -9.1 -9 -16 1 -4.6 6.4 -9.7 11.3 -10.5 5.2 -0.9 10.7 1.7 13.8 6.4 7 10.5 -3.8 24 -16.1 20.1z"/>
  <path d="M608.5 460.5 c-4.6 -2.5 -6.1 -4.2 -7.4 -8.5 -4.7 -15.6 16.4 -24.7 24.9 -10.7 5.1 8.4 -0.6 19.1 -10.7 20.3 -2.4 0.3 -4.9 -0.1 -6.8 -1.1z"/>
  <path d="M844.7 376.8 c-5 -5.2 -5.8 -9.6 -2.8 -15.5 2.4 -4.7 6.7 -7.3 12.1 -7.3 5.6 0 9.6 2.6 12.1 7.8 2.7 5.5 1.9 10.1 -2.5 14.9 -2.9 3.2 -4 3.7 -9 4.1 -5.7 0.5 -5.7 0.4 -9.9 -4z"/>
  <path d="M707.7 348 c-5.1 -4.5 -6.5 -9.5 -4.3 -15.4 4.1 -10.7 18.5 -11.9 24.7 -2 3.4 5.6 2.1 12.1 -3.5 17.3 -1.9 1.8 -4.1 2.6 -7.9 2.9 -4.9 0.4 -5.7 0.1 -9 -2.8z"/>
  <path d="M443.1 171.3 c-12.4 -6.5 -9.3 -24.2 4.5 -25.9 7.3 -0.9 14.1 4.6 15 12.2 1.3 10.4 -10.3 18.6 -19.5 13.7z"/>
  <path d="M735.1 168.2 c-5.2 -2.6 -7.6 -6.5 -7.6 -12.1 0 -12.5 14.1 -18.4 23 -9.6 7.3 7.3 4.8 18.8 -4.8 22.4 -4 1.5 -6.7 1.4 -10.6 -0.7z"/>
  <path d="M210.3 114.7 c-3.1 -2.9 -3.7 -4.1 -4 -8.8 -0.5 -6.6 1.7 -10.7 7 -13.2 10 -4.8 19.7 1.3 19.7 12.3 0 4.7 -0.4 5.6 -3.9 9.1 -3.6 3.6 -4.3 3.9 -9.5 3.9 -5 0 -6 -0.4 -9.3 -3.3z"/>
  <path d="M599.7 78.2 c-1.5 -0.9 -3.7 -3.6 -4.8 -5.9 -2.9 -5.9 -2.1 -10.6 2.4 -15.1 3 -3 4.4 -3.6 9 -4 4.9 -0.4 5.7 -0.2 9 2.7 3.8 3.4 6 8.3 5.5 12.3 -0.5 3.5 -3.7 8.3 -6.8 10.2 -3.6 2.1 -10.7 2 -14.3 -0.2z"/>
 </g>
 <g fill="#3ca6b4">
  <path d="M283.7 841.2 c-2.8 -1.7 -6.7 -8.4 -6.7 -11.5 0 -3.7 3.3 -9.7 6.5 -11.7 4 -2.5 10.7 -2.6 14.6 -0.3 1.6 1 3.9 3.7 5 6 3 6.1 2 11.1 -3.2 15.8 -3.3 3 -4.6 3.5 -8.7 3.5 -2.7 0 -5.9 -0.8 -7.5 -1.8z"/>
  <path d="M671.3 803 c-4.1 -2.5 -6.3 -6.8 -6.3 -12.4 0 -11.5 14.9 -17.2 23.2 -8.8 3.8 3.8 4.9 11.1 2.4 15.9 -3.4 6.7 -12.8 9.3 -19.3 5.3z"/>
  <path d="M151.1 752.2 c-5.2 -2.6 -7.6 -6.5 -7.6 -12.2 0 -11.7 13.5 -18 22.5 -10.4 7.5 6.3 5.4 19.2 -3.6 23 -4.4 1.8 -7.2 1.8 -11.3 -0.4z"/>
  <path d="M443.4 749.6 c-9 -4 -10.9 -16.7 -3.4 -23 8.4 -7.1 21.3 -2 22.6 9 0.6 4.6 -1.8 9.8 -5.6 12.6 -3.5 2.4 -9.8 3.1 -13.6 1.4z"/>
  <path d="M786.5 690 c-5.6 -2.3 -9 -10.1 -7.3 -16.6 0.4 -1.8 2.4 -4.6 4.3 -6.3 8.7 -7.6 22.5 -1.2 22.5 10.4 0 9.5 -10.5 16.3 -19.5 12.5z"/>
  <path d="M174.8 570.5 c-3.3 -1.8 -6.8 -7.4 -6.8 -10.9 0 -3.8 2.3 -8.7 5.5 -11.6 2.2 -2.1 3.7 -2.5 8.5 -2.5 5.1 0 6.3 0.4 9 3 6.6 6.3 5.9 16.9 -1.4 21.5 -3.9 2.4 -10.8 2.6 -14.8 0.5z"/>
  <path d="M278.1 460.3 c-7.5 -3.9 -10.2 -12.9 -5.9 -19.3 5.2 -7.7 14.8 -8.9 21.2 -2.5 4.9 4.9 5.6 11.4 1.9 17.2 -3.5 5.4 -11.6 7.6 -17.2 4.6z"/>
  <path d="M856.1 460.2 c-7.5 -3.7 -10.2 -12.8 -5.9 -19.2 5.2 -7.7 14.8 -8.9 21.2 -2.5 5.2 5.1 5.6 11.7 1.3 17.9 -2.1 3 -7.2 5.6 -10.9 5.6 -1.3 0 -3.8 -0.8 -5.7 -1.8z"/>
  <path d="M38.4 380 c-3.2 -1.3 -7.1 -6.5 -7.8 -10.5 -0.9 -4.6 2.2 -11.3 6.3 -13.8 6.8 -4 16.3 -1 19.5 6.2 2.7 5.9 1.7 10.7 -3.3 15.3 -3.4 3.2 -4.7 3.8 -8.3 3.7 -2.4 0 -5.2 -0.4 -6.4 -0.9z"/>
  <path d="M559.3 343 c-8.4 -5.1 -9.5 -16.3 -2.2 -22.4 4.1 -3.5 8.6 -4.1 13.7 -2.1 5.7 2.3 8.6 6.5 8.6 12.6 0 7.7 -5.9 13.9 -13.4 13.9 -1.9 0 -4.9 -0.9 -6.7 -2z"/>
  <path d="M238.7 256 c-7.1 -3.8 -9.9 -13.1 -5.8 -19.4 7.7 -11.7 25.1 -7 25.1 6.9 0 5 -1.2 8 -4.3 10.8 -3.6 3.1 -10.8 3.9 -15 1.7z"/>
  <path d="M783.3 228.6 c-3.3 -3 -3.7 -3.9 -4.1 -9.3 -0.4 -5.8 -0.3 -6.3 3 -9.8 10.7 -11.7 29.5 1.5 22.3 15.6 -2.3 4.3 -7.1 6.9 -12.8 6.9 -4 0 -5.3 -0.5 -8.4 -3.4z"/>
  <path d="M554.5 193.6 c-1.6 -0.7 -4.1 -2.6 -5.5 -4.1 -2.1 -2.2 -2.5 -3.7 -2.5 -8.5 0 -5.1 0.4 -6.3 2.9 -8.9 5.1 -5.3 12.2 -6.4 18 -2.6 7.5 5 7.5 17.7 -0.1 23 -3.1 2.2 -9.4 2.7 -12.8 1.1z"/>
  <path d="M361.6 55.1 c-4.3 -2.9 -6.6 -7 -6.6 -11.9 0 -5.8 2.5 -9.8 7.7 -12.3 5.4 -2.6 10.4 -1.8 15.1 2.6 3 2.7 3.6 3.9 4 8.8 0.4 5.6 0.4 5.8 -3.9 10 -3.8 3.7 -5.1 4.4 -8.9 4.5 -3 0.2 -5.4 -0.4 -7.4 -1.7z"/>
 </g>
 <g fill="#ed2226">
  <path d="M445.5 874.3 c-6.6 -1.7 -11.5 -9.7 -10 -16.4 1.5 -6.8 9.1 -11.8 16 -10.5 11.2 2.1 15.1 17.2 6.2 24 -3.3 2.5 -8.7 3.8 -12.2 2.9z"/>
  <path d="M597.4 838.5 c-4 -4.2 -4.3 -4.7 -4 -9.4 0.6 -8.1 5.8 -13.1 13.8 -13.1 13 0 18.2 15.2 8.2 24 -2.9 2.5 -4.3 3 -8.6 3 -4.8 0 -5.4 -0.3 -9.4 -4.5z"/>
  <path d="M212.8 803 c-5.2 -4.3 -6.7 -9.5 -4.4 -15.4 2.2 -5.6 6.6 -8.6 12.7 -8.6 12.4 0 18.3 14.1 9.5 22.8 -2.9 3 -4.3 3.6 -8.8 3.9 -4.8 0.4 -5.7 0.1 -9 -2.7z"/>
  <path d="M98.4 689.2 c-6 -3.8 -8.1 -12.8 -4.4 -18.9 3.9 -6.4 13.4 -8.4 19.7 -4 4.2 2.9 5.7 6.5 5.1 12.8 -0.7 7.3 -4.7 11.1 -12 11.6 -4 0.3 -6 -0.1 -8.4 -1.5z"/>
  <path d="M562.5 578.3 c-9.7 -2.4 -13.7 -16 -6.7 -22.5 5.4 -5 9.5 -5.9 15.6 -3.4 7.1 3 10 12 6.2 19.3 -2.4 4.7 -9.8 7.9 -15.1 6.6z"/>
  <path d="M708.3 569.9 c-4.5 -2.9 -7 -9.6 -5.5 -14.7 0.6 -2.1 2.5 -5.1 4.2 -6.7 2.7 -2.6 3.9 -3 9 -3 5.1 0 6.3 0.4 8.9 2.9 5.1 4.9 6.1 10.6 3.1 16.9 -3.1 6.4 -13.2 8.7 -19.7 4.6z"/>
  <path d="M155.3 460.9 c-9.5 -2.9 -12.1 -16.7 -4.3 -23.3 8.4 -7.1 21.3 -2 22.6 9 1.2 9.8 -8.4 17.3 -18.3 14.3z"/>
  <path d="M58.3 299.4 c-4 -3.8 -4.3 -4.5 -4.3 -9.4 0 -4.7 0.4 -5.6 3.8 -9 5 -5 9.6 -6 15.4 -3.1 5.2 2.5 7.8 6.5 7.8 12.1 0 5.6 -2.5 9.6 -7.6 12 -6.2 3.1 -10.1 2.4 -15.1 -2.6z"/>
  <path d="M826.5 303.2 c-5.7 -1.9 -9.5 -7.1 -9.5 -13 0 -5.8 2.5 -9.8 7.8 -12.3 5.8 -2.9 10.4 -1.9 15.4 3.1 3.4 3.4 3.8 4.3 3.8 9.1 0 4.9 -0.3 5.5 -4.3 9.4 -4.4 4.1 -8.3 5.2 -13.2 3.7z"/>
  <path d="M445.2 296.3 c-3.5 -0.7 -9 -6.8 -9.8 -10.7 -2.4 -13.1 14.4 -21.9 23.4 -12.3 4.3 4.5 5.2 9.9 2.6 15.3 -2.8 5.8 -9.6 9.1 -16.2 7.7z"/>
  <path d="M643.9 253.1 c-3.5 -3.4 -3.9 -4.4 -3.9 -8.7 0 -8.6 5.5 -14.4 13.5 -14.4 7.5 0 13.5 5.9 13.5 13.3 0 8.2 -5.8 13.7 -14.4 13.7 -4.3 0 -5.3 -0.4 -8.7 -3.9z"/>
  <path d="M335 194.3 c-6.6 -2.1 -10 -6.7 -10 -13.4 0 -5.1 2.4 -9.2 6.9 -12 5.4 -3.2 12.1 -1.8 17.1 3.6 2.1 2.2 2.5 3.7 2.5 8.5 0 4.8 -0.4 6.3 -2.5 8.5 -3.9 4.3 -9.7 6.3 -14 4.8z"/>
  <path d="M151.1 168.3 c-12.4 -6.5 -9.3 -24.2 4.5 -25.9 7.3 -0.9 14.1 4.6 15 12.2 1.3 10.4 -10.3 18.6 -19.5 13.7z"/>
  <path d="M520.5 52.9 c-3.8 -3.6 -4 -4 -4 -9.9 0 -5.8 0.2 -6.3 3.7 -9.5 4.9 -4.5 9.5 -5.3 15 -2.6 13.8 6.6 8.3 26.9 -6.9 25.9 -2.8 -0.2 -4.9 -1.2 -7.8 -3.9z"/>
 </g>
 <g fill="#e34e85">
  <path d="M447.7 471.6 c-0.3 -0.7 -5.1 -5.3 -10.7 -10.1 -11.8 -10.1 -13.1 -12 -13.8 -18.5 -0.5 -5.6 1.9 -10 7 -12.6 4.1 -2.1 11.6 -1.4 15.6 1.5 l3.1 2.2 3 -2.2 c3.9 -2.9 11.7 -3.7 15.9 -1.5 6.5 3.4 8.9 10.6 5.8 18 -0.7 1.8 -4.4 5.9 -8.2 9.2 -3.8 3.2 -9.1 8 -11.8 10.7 -2.7 2.6 -5 4.7 -5.1 4.7 -0.2 0 -0.5 -0.6 -0.8 -1.4z"/>
 </g>
</svg>